<svg width="253" height="174" viewBox="0 0 253 165" fill="none" xmlns="http://www.w3.org/2000/svg">
  <path fillRule="evenodd" clipRule="evenodd" d="M248.112 86.7191C243.78 78.6287 235.025 68.6925 212.629 59.3526C189.273 48.415 162.063 41.8011 130.707 37.6749C125.167 36.946 119.582 36.5932 113.992 36.5932H74.8453L67.4741 22.9376L70.1618 22.0374C70.5473 21.9083 70.7458 21.4804 70.5927 21.1015L64.6504 5.50047C63.5618 2.60377 63.4257 0.895677 60.4149 0.213464C52.9644 -1.47471 47.6345 6.91952 55.5669 22.9376L62.3711 40.0071C16.2732 74.5382 1.99587 121.428 0 169.167H115.103C118.913 133.622 124.992 89.4331 123.041 75.8532L217.165 99.7505L217.063 99.9207L249.167 88.8988C248.838 88.1637 248.492 87.4354 248.112 86.7191Z" fill="#FFCAB3"/>
  <path fillRule="evenodd" clipRule="evenodd" d="M249.167 88.3758C248.838 87.649 243.406 67.8851 212.629 59.1664C189.273 48.3535 162.063 41.815 130.707 37.7358C125.167 37.0153 119.582 36.6665 113.992 36.6665L82.8741 36.9478C84.388 42.5727 84.4107 48.592 81.1731 52.885C77.7427 57.4379 73.9891 58.5966 68.3247 57.7602C63.5107 57.0492 57.5515 54.0122 54.1097 46.5681C14.5381 79.9636 1.87113 127.415 0 171.667H115.103C118.913 136.527 124.992 88.904 123.041 75.4788L217.165 99.1037L217.063 99.2719C227.79 89.8163 238.496 85.2449 249.167 88.3758Z" fill="#EC5028"/>
  <path fillRule="evenodd" clipRule="evenodd" d="M146.085 23.1481C144.366 26.6445 141.008 33.492 139.931 35.6797C139.734 36.0764 139.867 36.5514 140.244 36.7954L143.063 38.6398L145.379 54.53C137.801 70.2147 134.159 87.4374 131.485 105.038C127.629 129.15 128.978 149.907 132.642 169.166H174.325L184.167 126.603L183.588 76.6627C174.586 65.5192 163.835 58.7545 157.721 54.2122C157.073 53.7321 156.349 52.7219 156.106 51.9626L151.649 37.872C151.348 36.9373 151.475 35.9215 151.979 35.077C157.154 26.4038 155.898 20.125 151.145 20.0012C148.986 19.9456 147.023 21.2395 146.085 23.1481Z" fill="#FFCAB3"/>
  <path fillRule="evenodd" clipRule="evenodd" d="M151.602 28.7003C150.419 27.4053 150.865 24.8297 151.528 22.466C148.066 22.6842 145.706 19.9975 146.209 16.2847C139.857 14.5452 140.771 9.6984 145.244 4.43102C147.751 -0.696148 149.945 2.14814 152.099 6.17634C156.955 7.41377 159.565 11.9563 160.097 19.5571C162.593 21.6608 161.896 24.9519 159.525 28.8655C159.525 28.8655 155.721 34.2318 153.727 34.977C153.59 35.0288 153.43 34.9922 153.344 34.8694C152.596 33.7949 152.67 32.3201 152.67 32.3201C153.716 32.3806 154.704 29.8411 154.767 29.2937C154.875 28.3495 154.492 27.6531 153.561 27.6659C153.053 27.6723 152.71 27.8963 152.196 28.6479C152.053 28.8475 151.768 28.8783 151.602 28.7003Z" fill="#060022"/>
  <path fillRule="evenodd" clipRule="evenodd" d="M141.667 34.9995C141.667 35.0223 146.843 36.1615 149.167 35.8035L148.606 36.4831C148.396 36.8362 148.186 37.192 148.027 37.5696C147.307 39.2797 145.023 39.1646 145.023 39.1646L144.705 37.0595C144.705 37.0595 141.644 35.1924 141.667 34.9995Z" fill="#060022"/>
  <path fillRule="evenodd" clipRule="evenodd" d="M111.314 137.27C104.424 122.634 95.2758 114.381 86.3161 102.612C85.75 101.872 85.3326 101.02 85.1611 100.108C84.6693 97.4729 82.9826 95.1741 81.5303 92.9668C81.5303 92.9668 80.1009 91.9718 80.3868 94.199C80.6326 96.0799 81.4788 96.8281 81.01 97.2313C80.6498 97.5395 79.9351 97.1016 79.1346 96.4506C76.8818 94.626 75.0693 92.3204 73.7313 89.7566C73.0051 88.3578 72.4334 87.2587 72.0503 87.2809C70.8095 87.518 73.5769 95.194 73.0966 95.3834C72.6221 95.5727 71.4499 93.2165 71.4499 93.2165C70.9925 92.616 70.7066 91.907 70.6209 91.157C70.4722 89.7606 70.1005 87.468 69.2886 86.9494C68.0936 86.1909 68.4767 92.3511 68.4767 92.3511C68.4767 92.3511 70.2378 96.5205 69.8089 96.947C69.3801 97.3734 68.0707 94.6982 68.0707 94.6982C67.6819 94.3423 67.4132 93.8777 67.2988 93.366C67.2988 93.366 66.7785 89.1328 65.9037 89.176C65.452 89.1988 65.1833 90.5048 65.0232 91.8746C64.8059 93.7612 65.1261 95.6705 65.938 97.3871L67.0816 99.7934C67.3217 100.296 67.0701 100.352 66.6184 100.027C65.3262 99.1014 66.2353 96.2362 64.9488 96.0469C63.6624 95.8576 63.8053 102.775 66.5727 106.044L69.4659 111.618C70.192 113.015 70.7867 114.474 71.2441 115.979C71.5586 117.026 71.7758 117.819 71.8616 118.222C76.047 141.404 83.2113 154.458 92.1882 162.585C99.747 169.43 113.218 171.369 122.103 166.335C126.426 163.885 129.359 160.397 131.612 153.901L143.333 62.5C129.891 74.437 118.959 109.04 111.314 137.27Z" fill="#FFCAB3"/>
  <mask id="mask0"  maskUnits="userSpaceOnUse" x="71" y="46" width="147" height="126">
    <path fillRule="evenodd" clipRule="evenodd" d="M187.367 171.632C186.3 162.818 184.127 148.629 181.03 136.689L174.811 171.632H152.36L134.001 171.581C133.127 166.885 131.606 157.951 131.038 153.049C128.831 159.195 125.966 162.564 121.795 164.943C112.977 169.973 99.6077 168.036 92.1061 161.196C83.1972 153.074 76.0871 140.03 71.9334 116.865C71.9277 116.856 71.9277 116.845 71.9277 116.836C78.8335 115.098 85.0981 113.747 91.7656 108.159C98.8076 116.686 105.657 124.28 111.087 135.899C118.447 108.538 128.871 75.1864 141.667 62.3205C142.875 59.0449 144.203 55.8205 145.701 52.6603L145.349 50.2182L155.183 46.7603L156.216 50.0898C156.443 50.8387 157.141 51.8443 157.765 52.3188C160.858 54.6699 165.182 57.6245 169.852 61.4665C171.605 62.0006 173.546 62.9358 175.668 64.3438C209.035 93.8904 214.407 141.014 217.028 171.632H187.367Z" fill="white"/>
  </mask>
  <g mask="url(#mask0)">
    <path fillRule="evenodd" clipRule="evenodd" d="M217.091 172.376C214.493 141.782 209.306 94.1307 175.668 64.3438C173.546 62.9358 171.605 62.0006 169.852 61.4665C165.182 57.6245 160.858 54.6699 157.765 52.3188C157.141 51.8443 156.443 50.8387 156.216 50.0898L155.183 46.7603L145.349 50.2182L145.701 52.6603C144.203 55.8205 142.875 59.0449 141.667 62.3205C128.871 75.1864 118.447 108.538 111.087 135.899C105.657 124.28 98.8076 116.686 91.7656 108.159C85.0981 113.747 78.8335 115.098 71.9277 116.836C71.9277 116.845 71.9277 116.856 71.9334 116.865C76.0871 140.03 83.1972 153.074 92.1061 161.196C99.6077 168.036 112.977 169.973 121.795 164.943C125.966 162.564 128.831 159.195 131.038 153.049C131.606 157.951 132.338 162.737 133.217 167.433H174.073L181.03 136.689C184.202 148.918 186.404 163.506 187.442 172.263L217.091 172.376Z" fill="#FF5D3C"/>
    <path fillRule="evenodd" clipRule="evenodd" d="M217.091 172.376C214.493 141.782 209.306 94.1307 175.668 64.3438C173.546 62.9358 171.605 62.0006 169.852 61.4665C165.182 57.6245 160.858 54.6699 157.765 52.3188C157.141 51.8443 156.443 50.8387 156.216 50.0898L155.183 46.7603L145.349 50.2182L145.701 52.6603C144.203 55.8205 142.875 59.0449 141.667 62.3205C128.871 75.1864 118.447 108.538 111.087 135.899C105.657 124.28 98.8076 116.686 91.7656 108.159C85.0981 113.747 78.8335 115.098 71.9277 116.836C71.9277 116.845 71.9277 116.856 71.9334 116.865C76.0871 140.03 83.1972 153.074 92.1061 161.196C99.6077 168.036 112.977 169.973 121.795 164.943C125.966 162.564 128.831 159.195 131.038 153.049C131.606 157.951 132.559 166.658 133.433 171.354L174.459 171.411L181.03 136.689C184.202 148.918 186.404 163.506 187.442 172.263L217.091 172.376Z" fill="#0731AD"/>
    <path fillRule="evenodd" clipRule="evenodd" d="M168.399 170.847L167.832 170.837C168.745 120.52 168.927 76.9888 161.885 53.8797L162.43 53.7144C169.494 76.903 169.313 120.481 168.399 170.847Z" fill="#FFC200"/>
    <path fillRule="evenodd" clipRule="evenodd" d="M153.362 171.412L152.794 171.409L153.362 47.2617L153.929 47.264L153.362 171.412Z" fill="#FFB195"/>
    <path fillRule="evenodd" clipRule="evenodd" d="M182.296 171.45L181.734 171.37C187.034 134.568 182.733 102.513 177.751 65.3974C177.189 61.2167 176.621 56.9866 176.06 52.6963L176.621 52.6235C177.183 56.9122 177.751 61.1417 178.312 65.3213C183.3 102.48 187.607 134.571 182.296 171.45Z" fill="#FFB195"/>
    <path fillRule="evenodd" clipRule="evenodd" d="M197.901 171.451L197.339 171.37C201.527 142.287 199.733 115.282 195.756 83.6824L196.323 83.6113C200.301 115.257 202.094 142.305 197.901 171.451Z" fill="#FFC200"/>
    <path fillRule="evenodd" clipRule="evenodd" d="M137.814 170.8C135.555 129.14 138.557 87.6919 146.842 48.0562L147.398 48.1732C139.125 87.7596 136.129 129.158 138.381 170.769L137.814 170.8Z" fill="#FFC200"/>
    <path fillRule="evenodd" clipRule="evenodd" d="M120.166 171.13C119.792 142.052 125.426 105.059 131.231 69.6597L131.793 69.7517C125.994 105.126 120.359 142.091 120.734 171.122L120.166 171.13Z" fill="#FFB195"/>
    <path fillRule="evenodd" clipRule="evenodd" d="M103.71 171.13C103.54 158.102 104.573 142.468 106.871 123.336L107.433 123.404C105.14 142.511 104.107 158.119 104.278 171.122L103.71 171.13Z" fill="#FFC200"/>
    <path fillRule="evenodd" clipRule="evenodd" d="M75.2018 143.828C75.077 134.377 75.826 123.037 77.4943 109.16L78.0561 109.228C76.3935 123.08 75.6444 134.395 75.7693 143.82L75.2018 143.828Z" fill="#FFC200"/>
    <path fillRule="evenodd" clipRule="evenodd" d="M87.2544 166.016C87.1295 156.637 89.439 142.052 91.6634 127.947C92.8267 120.603 93.9218 113.667 94.6311 107.74L95.1929 107.808C94.4836 113.745 93.3884 120.687 92.2252 128.035C90.0008 142.117 87.697 156.678 87.8218 166.008L87.2544 166.016Z" fill="#FFB195"/>
    <path fillRule="evenodd" clipRule="evenodd" d="M138.007 61.7037C135.918 61.7037 133.842 61.6247 131.776 61.4667L131.822 60.9003C144.867 61.902 158.474 59.7094 172.269 54.3838L172.473 54.9145C160.778 59.4281 149.214 61.7037 138.007 61.7037Z" fill="#FFC200"/>
    <path fillRule="evenodd" clipRule="evenodd" d="M124.331 84.2867C119.877 84.2867 115.456 84.1185 111.064 83.781L111.11 83.214C138.983 85.3555 168.059 80.6725 197.52 69.2964L197.725 69.8271C172.825 79.4407 148.198 84.2867 124.331 84.2867Z" fill="#FFB195"/>
    <path fillRule="evenodd" clipRule="evenodd" d="M119.621 131.335C102.717 131.335 85.4556 130.301 69.0564 127.941L69.1358 127.379C123.9 135.255 188.282 128.358 216.53 117.452L216.734 117.982C196.885 125.645 159.246 131.335 119.621 131.335Z" fill="#FFB195"/>
    <path fillRule="evenodd" clipRule="evenodd" d="M129.784 107.245C124.49 107.245 119.19 107.043 113.902 106.637L113.947 106.07C144.294 108.402 174.959 103.986 202.627 93.3042L202.832 93.8349C179.907 102.684 154.934 107.245 129.784 107.245Z" fill="#FFC200"/>
    <path fillRule="evenodd" clipRule="evenodd" d="M141.071 155.832C120.597 155.832 100.896 154.319 82.9758 152.943L83.0212 152.377C127.072 155.759 181.898 159.969 232.418 140.463L232.622 140.994C202.559 152.601 170.987 155.832 141.071 155.832Z" fill="#FFC200"/>
    <path fillRule="evenodd" clipRule="evenodd" d="M211.519 171.451L210.957 171.37C212.898 157.897 213.653 144.161 213.272 129.378L213.84 129.364C214.22 144.179 213.465 157.946 211.519 171.451Z" fill="#FFB195"/>
  </g>
  <path fillRule="evenodd" clipRule="evenodd" d="M131.116 127.5C130.574 141.069 129.247 154.223 125 165.833C129.507 162.635 130.559 159.448 132.5 154.71L131.116 127.5Z" fill="#060022"/>
  <path fillRule="evenodd" clipRule="evenodd" d="M171.667 109.167C173.62 126.501 175.643 140.778 178.828 145.833C180.49 139.699 179.401 144.386 180.833 138.05L171.667 109.167Z" fill="#060022"/>
  <path fillRule="evenodd" clipRule="evenodd" d="M216.745 100.372L195.52 134.346C192.824 138.661 189.261 142.383 185.09 145.383C182.232 147.437 181.492 151.951 182.111 153.253C182.672 154.448 184.87 150.735 187.051 150.331C187.595 150.23 188.005 150.798 187.734 151.267C183.875 157.918 179.912 164.971 181.023 166.593C182.053 168.094 188.96 158.675 190.487 156.556C190.603 156.396 190.863 156.46 190.881 156.655C191.297 160.802 184.077 168.774 185.072 170.535C185.587 171.451 187.572 170.052 189.671 168.024C189.689 168.007 189.706 167.987 189.712 167.965C191.314 164.667 195.069 159.582 195.485 160.398C195.821 161.052 192.668 165.115 189.724 167.971C189.706 167.989 189.695 168.01 189.683 168.032C189.093 169.259 188.81 170.229 189.122 170.535C190.03 171.42 191.835 170.217 193.686 168.5C193.715 168.473 193.732 168.44 193.744 168.401C193.964 167.477 195.514 166.242 196.96 165.121C196.966 165.114 196.978 165.105 196.984 165.095C198.459 163.473 199.535 162.241 199.535 162.651C199.535 163.144 198.314 164.071 196.989 165.098C196.978 165.106 196.966 165.114 196.96 165.123C195.994 166.188 194.855 167.414 193.732 168.459C193.709 168.595 193.709 168.725 193.75 168.846C193.987 169.532 196.035 168.824 198.384 167.742C202.607 165.797 206.511 163.253 210.023 160.257C226.325 146.352 241.273 133.458 248.932 118.034C253.404 109.026 253.716 98.643 249.62 89.5782C249.574 89.4762 249.458 89.4256 249.348 89.4616C240.845 86.9392 231.028 87.8853 216.861 100.282C216.808 100.298 216.768 100.33 216.745 100.372Z" fill="#FFCAB3"/>
  <path fillRule="evenodd" clipRule="evenodd" d="M40.8333 173.333H46.2692C51.89 156.659 56.6247 123.026 55.7223 121.7C54.8145 120.373 48.5523 158.716 40.8333 173.333Z" fill="#060022"/>
  <path fillRule="evenodd" clipRule="evenodd" d="M147.5 50.346L147.801 53.3328C152.49 51.8234 155.413 51.9737 156.667 47.4995L147.5 50.346Z" fill="white"/>
  <path fillRule="evenodd" clipRule="evenodd" d="M147.5 51.2438L145.636 54.1667C144.465 53.192 144.182 53.6303 144.167 52.8119C144.16 52.301 144.331 51.7955 144.599 51.3174L145.353 50L145.636 51.1816L147.5 51.2438Z" fill="white"/>
  <path fillRule="evenodd" clipRule="evenodd" d="M80.1792 106.667C80.1096 106.667 80.0356 106.621 79.9964 106.539C78.4163 103.373 79.3957 101.133 80.4361 99.2817C80.5057 99.1618 80.6407 99.1304 80.7408 99.2116C80.8366 99.2921 80.8627 99.4554 80.7974 99.5747C79.7875 101.371 78.9212 103.367 80.3664 106.27C80.4317 106.394 80.3969 106.555 80.2924 106.629C80.2576 106.655 80.2184 106.667 80.1792 106.667Z" fill="#060022"/>
  <path fillRule="evenodd" clipRule="evenodd" d="M151.375 31.6667C151.257 31.6667 151.138 31.6406 151.041 31.5854C150.805 31.4571 150.762 31.2228 150.955 31.0617C151.203 30.8394 151.375 30.582 151.429 30.3195C151.472 30.1151 151.741 29.9771 152.031 30.0032C152.333 30.033 152.537 30.2217 152.494 30.4254C152.408 30.8207 152.171 31.2004 151.795 31.5264C151.687 31.6189 151.526 31.6667 151.375 31.6667Z" fill="#060022"/>
  <path fillRule="evenodd" clipRule="evenodd" d="M62.5 25.8335C64.3828 26.8189 66.4252 27.3548 68.6005 27.4962C69.5844 27.5606 70.2971 26.8216 69.8769 26.1691L69.8663 26.159L62.5 25.8335Z" fill="#000201"/>
  <path fillRule="evenodd" clipRule="evenodd" d="M61.9792 16.7458L67.1352 15.0107L66.7922 14.058L71.7766 19.8114C72.4018 20.3368 72.6728 21.1948 72.3852 21.9531C71.7545 23.6082 70.3327 24.7487 68.1365 25.3922C64.1865 26.5519 59.9047 25.3666 56.9616 22.5231C55.0641 20.6912 53.493 18.8151 52.2206 16.7768C52.0657 16.5313 51.955 16.265 51.872 15.9885L50.1958 10.1605C49.5873 7.5086 50.4282 4.3036 52.287 2.29197C54.1181 0.305931 57.1884 -0.93589 60.6626 0.889549C61.592 1.37953 62.3222 2.17765 62.7593 3.12494L63.1244 4.32647C61.0664 4.63733 58.577 6.05391 56.7956 7.34528C56.0377 7.89732 55.6007 8.77873 55.6339 9.70806L55.8386 15.2198C56.519 16.2155 57.6033 16.6358 58.931 16.7109C59.44 16.7392 61.4979 16.9096 61.9792 16.7458Z" fill="#FF5D3C"/>
  <path fillRule="evenodd" clipRule="evenodd" d="M57.5001 16.6667C55.5929 16.5866 54.4323 16.4814 54.1814 14.1333C54.1437 13.8196 54.1751 13.4939 54.3194 13.2095C54.5954 12.6544 55.1538 12.373 56.1889 12.5553L57.5001 16.6667Z" fill="#FFCAB3"/>
  <path fillRule="evenodd" clipRule="evenodd" d="M56.9298 15.0002C56.0865 14.7112 55.6826 14.1558 55.8845 13.6089C55.9558 13.4196 56.2765 13.3016 56.5972 13.3411C56.9179 13.3849 57.1198 13.5736 57.0486 13.7637C56.9535 14.0074 57.1317 14.2547 57.4999 14.3798L56.9298 15.0002Z" fill="#060022"/>
</svg>
