<svg width="12" height="12" viewBox="0 0 12 12" fill="none" xmlns="http://www.w3.org/2000/svg">
  <path fillRule="evenodd" clipRule="evenodd" d="M2.43726 8.49098C1.71196 9.34779 0.987029 10.2047 0.261344 11.0614C0.0695112 11.2877 0.0645892 11.5482 0.250995 11.7318C0.43614 11.9142 0.68628 11.9113 0.911053 11.7235C1.53274 11.2054 2.15393 10.6872 2.77549 10.169C3.0587 9.9325 3.34266 9.69624 3.63748 9.45052C3.27388 9.0839 2.91748 8.72396 2.55413 8.35771C2.5092 8.40908 2.4726 8.44946 2.43726 8.49098ZM7.53775 11.8489C8.05734 11.2662 8.03324 10.2606 7.56728 9.13892C7.57687 9.1215 7.58773 9.10384 7.60148 9.08554C8.65556 7.67355 9.70332 6.25741 10.753 4.84227L10.8972 4.98677C11.1318 5.22126 11.512 5.22114 11.7462 4.98665L11.8242 4.9089C12.0585 4.67454 12.0587 4.29454 11.8243 4.05992L7.93997 0.175709C7.70535 -0.0586538 7.32547 -0.0585276 7.09086 0.175835L7.01311 0.253451C6.77875 0.487814 6.77875 0.868196 7.01311 1.10256L7.21277 1.30259C5.77819 2.35174 4.34411 3.40138 2.90662 4.44649C2.90523 4.44775 2.90309 4.44851 2.90132 4.44939C1.75121 3.96211 0.697512 3.9139 0.131983 4.4793C0.0666085 4.54468 -0.113487 4.75165 0.104849 4.97011L7.01879 11.8839C7.26086 12.1259 7.45988 11.9267 7.53775 11.8489ZM4.86496 5.66399C4.57141 5.42407 4.27381 5.20915 3.9771 5.02047C5.25027 3.98092 6.52293 2.94111 7.80493 1.89424L8.47571 2.56502C7.26439 3.6047 6.06417 4.63466 4.86496 5.66399Z" fill="white"/>
</svg>
