<svg width="430" height="240" viewBox="0 0 430 240" fill="none" xmlns="http://www.w3.org/2000/svg">
  <path d="M0 25C0 11.1929 11.1929 0 25 0H405C418.807 0 430 11.1929 430 25V240H0V25Z" fill="#90C3EF"/>
  <mask id="mask0" mask-type="alpha" maskUnits="userSpaceOnUse" x="0" y="0" width="430" height="240">
    <path d="M0 25C0 11.1929 11.1929 0 25 0H405C418.807 0 430 11.1929 430 25V240H0V25Z" fill="white"/>
  </mask>
  <g mask="url(#mask0)">
    <path fillRule="evenodd" clipRule="evenodd" d="M403.734 140.063C398.536 130.354 388.031 118.431 361.154 107.223C333.128 94.098 300.475 86.1614 262.848 81.2098C256.201 80.3352 249.499 79.9119 242.79 79.9119H195.814L186.969 63.5251L190.194 62.4449C190.657 62.2899 190.895 61.7765 190.711 61.3218L183.581 42.6006C182.274 39.1245 182.111 37.0748 178.498 36.2562C169.557 34.2303 163.161 44.3034 172.68 63.5251L180.845 84.0085C125.528 125.446 108.395 181.713 106 239H244.124C248.696 196.346 255.99 143.32 253.649 127.024L366.598 155.701L366.475 155.905L405 142.679C404.605 141.796 404.19 140.923 403.734 140.063Z" fill="#FFCAB3"/>
    <path fillRule="evenodd" clipRule="evenodd" d="M405 142.051C404.605 141.179 398.087 117.462 361.154 107C333.128 94.0244 300.475 86.1782 262.848 81.2832C256.201 80.4185 249.499 80 242.79 80L205.449 80.3375C207.266 87.0875 207.293 94.3106 203.408 99.4622C199.291 104.926 194.787 106.316 187.99 105.312C182.213 104.459 175.062 100.815 170.932 91.882C123.446 131.957 108.245 188.898 106 242H244.124C248.696 199.832 255.99 142.685 253.649 126.575L366.598 154.925L366.475 155.127C379.348 143.78 392.195 138.294 405 142.051Z" fill="#3252FF"/>
    <path fillRule="evenodd" clipRule="evenodd" d="M281.302 63.7783C279.239 67.9739 275.209 76.191 273.917 78.8163C273.681 79.2923 273.841 79.8623 274.292 80.1551L277.676 82.3684L280.454 101.437C271.361 120.258 266.991 140.925 263.781 162.046C259.155 190.98 260.773 215.889 265.171 239H315.19L327 187.924L326.305 127.996C315.503 114.624 302.602 106.506 295.266 101.055C294.488 100.479 293.619 99.2669 293.327 98.3557L287.978 81.447C287.617 80.3254 287.77 79.1064 288.374 78.093C294.585 67.6852 293.077 60.1505 287.374 60.0021C284.783 59.9353 282.427 61.488 281.302 63.7783Z" fill="#FFCAB3"/>
    <path fillRule="evenodd" clipRule="evenodd" d="M287.922 70.4405C286.503 68.8865 287.038 65.7959 287.833 62.9594C283.679 63.2212 280.848 59.9972 281.451 55.5418C273.828 53.4544 274.925 47.6383 280.292 41.3174C283.302 35.1648 285.934 38.578 288.519 43.4118C294.345 44.8967 297.478 50.3477 298.116 59.4688C301.112 61.9932 300.275 65.9425 297.43 70.6388C297.43 70.6388 292.865 77.0783 290.472 77.9726C290.308 78.0348 290.116 77.9908 290.013 77.8435C289.115 76.554 289.204 74.7843 289.204 74.7843C290.459 74.8569 291.645 71.8096 291.72 71.1526C291.85 70.0196 291.391 69.1839 290.273 69.1993C289.663 69.2069 289.252 69.4757 288.635 70.3777C288.464 70.6172 288.121 70.6542 287.922 70.4405Z" fill="#060022"/>
    <path fillRule="evenodd" clipRule="evenodd" d="M276 78C276 78.0274 282.211 79.3944 285 78.9648L284.327 79.7803C284.075 80.204 283.823 80.631 283.633 81.0841C282.769 83.1363 280.027 82.9981 280.027 82.9981L279.646 80.472C279.646 80.472 275.973 78.2314 276 78Z" fill="#060022"/>
    <path fillRule="evenodd" clipRule="evenodd" d="M239.577 200.724C231.309 183.16 220.331 173.257 209.579 159.134C208.9 158.247 208.399 157.224 208.193 156.13C207.603 152.968 205.579 150.209 203.836 147.56C203.836 147.56 202.121 146.366 202.464 149.039C202.759 151.296 203.775 152.194 203.212 152.678C202.78 153.047 201.922 152.522 200.961 151.741C198.258 149.551 196.083 146.784 194.477 143.708C193.606 142.029 192.92 140.711 192.46 140.737C190.971 141.022 194.292 150.233 193.716 150.46C193.146 150.687 191.74 147.86 191.74 147.86C191.191 147.139 190.848 146.288 190.745 145.388C190.567 143.713 190.121 140.962 189.146 140.339C187.712 139.429 188.172 146.821 188.172 146.821C188.172 146.821 190.285 151.825 189.771 152.336C189.256 152.848 187.685 149.638 187.685 149.638C187.218 149.211 186.896 148.653 186.759 148.039C186.759 148.039 186.134 142.959 185.084 143.011C184.542 143.039 184.22 144.606 184.028 146.249C183.767 148.513 184.151 150.805 185.126 152.864L186.498 155.752C186.786 156.355 186.484 156.422 185.942 156.032C184.391 154.922 185.482 151.483 183.939 151.256C182.395 151.029 182.566 159.33 185.887 163.253L189.359 169.942C190.23 171.618 190.944 173.369 191.493 175.175C191.87 176.431 192.131 177.383 192.234 177.866C197.256 205.685 205.853 221.349 216.626 231.102C225.696 239.317 241.862 241.643 252.524 235.602C257.711 232.662 261.231 228.476 263.934 220.681L278 111C261.869 125.324 248.75 166.848 239.577 200.724Z" fill="#FFCAB3"/>
    <mask id="mask1" mask-type="alpha" maskUnits="userSpaceOnUse" x="192" y="92" width="175" height="150">
      <path fillRule="evenodd" clipRule="evenodd" d="M330.84 241.959C329.559 231.382 326.953 214.355 323.236 200.027L315.773 241.959H288.832L266.801 241.898C265.752 236.263 263.927 225.541 263.246 219.66C260.597 227.035 257.159 231.077 252.154 233.932C241.572 239.968 225.529 237.644 216.527 229.436C205.837 219.69 197.304 204.036 192.32 176.238C192.313 176.228 192.313 176.215 192.313 176.204C200.6 174.118 208.118 172.497 216.119 165.791C224.569 176.024 232.788 185.136 239.304 199.079C248.136 166.246 260.645 126.224 276 110.785C277.45 106.854 279.044 102.985 280.841 99.1925L280.419 96.2621L292.22 92.1125L293.459 96.108C293.732 97.0066 294.569 98.2135 295.318 98.7828C299.029 101.604 304.218 105.15 309.822 109.76C311.926 110.401 314.255 111.523 316.802 113.213C356.842 148.669 363.288 205.217 366.434 241.959H330.84Z" fill="white"/>
    </mask>
    <g mask="url(#mask1)">
      <path fillRule="evenodd" clipRule="evenodd" d="M366.51 242.852C363.391 206.138 357.167 148.957 316.802 113.213C314.255 111.523 311.926 110.401 309.822 109.76C304.218 105.15 299.029 101.604 295.318 98.7828C294.569 98.2135 293.732 97.0066 293.459 96.108L292.22 92.1125L280.419 96.2621L280.841 99.1925C279.044 102.985 277.45 106.854 276 110.785C260.645 126.224 248.136 166.246 239.304 199.079C232.788 185.136 224.569 176.024 216.119 165.791C208.118 172.497 200.6 174.118 192.313 176.204C192.313 176.215 192.313 176.228 192.32 176.238C197.304 204.036 205.837 219.69 216.527 229.436C225.529 237.644 241.572 239.968 252.154 233.932C257.159 231.077 260.597 227.035 263.246 219.66C263.927 225.541 264.805 231.285 265.861 236.92H314.888L323.236 200.027C327.043 214.702 329.685 232.208 330.931 242.715L366.51 242.852Z" fill="#FF5D3C"/>
      <path fillRule="evenodd" clipRule="evenodd" d="M366.51 242.852C363.391 206.138 357.167 148.957 316.802 113.213C314.255 111.523 311.926 110.401 309.822 109.76C304.218 105.15 299.029 101.604 295.318 98.7828C294.569 98.2135 293.732 97.0066 293.459 96.108L292.22 92.1125L280.419 96.2621L280.841 99.1925C279.044 102.985 277.45 106.854 276 110.785C260.645 126.224 248.136 166.246 239.304 199.079C232.788 185.136 224.569 176.024 216.119 165.791C208.118 172.497 200.6 174.118 192.313 176.204C192.313 176.215 192.313 176.228 192.32 176.238C197.304 204.036 205.837 219.69 216.527 229.436C225.529 237.644 241.572 239.968 252.154 233.932C257.159 231.077 260.597 227.035 263.246 219.66C263.927 225.541 265.071 235.99 266.12 241.625L315.351 241.693L323.236 200.027C327.043 214.702 329.685 232.208 330.931 242.715L366.51 242.852Z" fill="#6236FF"/>
      <path fillRule="evenodd" clipRule="evenodd" d="M308.079 241.017L307.398 241.005C308.494 180.624 308.712 128.387 300.262 100.656L300.915 100.457C309.393 128.284 309.175 180.577 308.079 241.017Z" fill="#FFC200"/>
      <path fillRule="evenodd" clipRule="evenodd" d="M290.034 241.694L289.353 241.691L290.034 92.7139L290.715 92.7166L290.034 241.694Z" fill="#FFB195"/>
      <path fillRule="evenodd" clipRule="evenodd" d="M324.755 241.741L324.081 241.644C330.441 197.482 325.279 159.017 319.301 114.478C318.627 109.461 317.946 104.385 317.271 99.2362L317.946 99.1489C318.62 104.295 319.301 109.371 319.975 114.386C325.96 158.976 331.128 197.486 324.755 241.741Z" fill="#FFB195"/>
      <path fillRule="evenodd" clipRule="evenodd" d="M343.481 241.741L342.807 241.644C347.832 206.745 345.68 174.339 340.907 136.419L341.588 136.334C346.361 174.309 348.513 206.766 343.481 241.741Z" fill="#FFC200"/>
      <path fillRule="evenodd" clipRule="evenodd" d="M271.376 240.961C268.666 190.968 272.268 141.231 282.21 93.6677L282.877 93.8082C272.949 141.312 269.354 190.99 272.057 240.923L271.376 240.961Z" fill="#FFC200"/>
      <path fillRule="evenodd" clipRule="evenodd" d="M250.199 241.356C249.75 206.463 256.512 162.07 263.478 119.592L264.152 119.702C257.193 162.151 250.431 206.509 250.88 241.347L250.199 241.356Z" fill="#FFB195"/>
      <path fillRule="evenodd" clipRule="evenodd" d="M230.452 241.356C230.248 225.722 231.487 206.962 234.245 184.003L234.919 184.084C232.168 207.013 230.929 225.743 231.133 241.347L230.452 241.356Z" fill="#FFC200"/>
      <path fillRule="evenodd" clipRule="evenodd" d="M196.242 208.594C196.092 197.252 196.991 183.644 198.993 166.992L199.667 167.074C197.672 183.696 196.773 197.274 196.923 208.584L196.242 208.594Z" fill="#FFC200"/>
      <path fillRule="evenodd" clipRule="evenodd" d="M210.705 235.22C210.555 223.965 213.327 206.462 215.996 189.536C217.392 180.724 218.706 172.401 219.557 165.288L220.232 165.37C219.38 172.495 218.066 180.825 216.67 189.643C214.001 206.541 211.236 224.014 211.386 235.211L210.705 235.22Z" fill="#FFB195"/>
      <path fillRule="evenodd" clipRule="evenodd" d="M271.608 110.044C269.102 110.044 266.61 109.95 264.131 109.76L264.186 109.08C279.84 110.282 296.169 107.651 312.723 101.26L312.968 101.897C298.934 107.314 285.056 110.044 271.608 110.044Z" fill="#FFC200"/>
      <path fillRule="evenodd" clipRule="evenodd" d="M255.197 137.145C249.852 137.145 244.548 136.943 239.277 136.538L239.332 135.857C272.779 138.427 307.67 132.808 343.024 119.156L343.269 119.793C313.39 131.329 283.838 137.145 255.197 137.145Z" fill="#FFB195"/>
      <path fillRule="evenodd" clipRule="evenodd" d="M249.546 193.603C229.261 193.603 208.547 192.361 188.868 189.53L188.963 188.855C254.68 198.306 331.939 190.031 365.836 176.942L366.081 177.579C342.262 186.774 297.095 193.603 249.546 193.603Z" fill="#FFB195"/>
      <path fillRule="evenodd" clipRule="evenodd" d="M261.741 164.693C255.388 164.693 249.028 164.452 242.682 163.965L242.736 163.284C279.153 166.082 315.95 160.783 349.153 147.965L349.398 148.602C321.888 159.221 291.92 164.693 261.741 164.693Z" fill="#FFC200"/>
      <path fillRule="evenodd" clipRule="evenodd" d="M275.285 222.998C250.717 222.998 227.075 221.183 205.571 219.532L205.626 218.852C258.486 222.911 324.278 227.963 384.902 204.556L385.147 205.193C349.071 219.122 311.184 222.998 275.285 222.998Z" fill="#FFC200"/>
      <path fillRule="evenodd" clipRule="evenodd" d="M359.823 241.741L359.149 241.644C361.478 225.476 362.383 208.994 361.927 191.254L362.608 191.237C363.064 209.015 362.159 225.535 359.823 241.741Z" fill="#FFB195"/>
    </g>
    <path fillRule="evenodd" clipRule="evenodd" d="M263.339 189C262.689 205.283 261.096 221.067 256 235C261.409 231.161 262.67 227.337 265 221.652L263.339 189Z" fill="#060022"/>
    <path fillRule="evenodd" clipRule="evenodd" d="M312 167C314.344 187.801 316.771 204.933 320.594 211C322.587 203.638 321.281 209.263 323 201.66L312 167Z" fill="#060022"/>
    <path fillRule="evenodd" clipRule="evenodd" d="M366.094 156.447L340.624 197.215C337.389 202.393 333.113 206.86 328.108 210.459C324.679 212.924 323.79 218.34 324.533 219.903C325.206 221.338 327.844 216.882 330.461 216.397C331.114 216.276 331.607 216.958 331.28 217.521C326.65 225.502 321.895 233.965 323.228 235.911C324.463 237.712 332.752 226.41 334.585 223.866C334.724 223.675 335.036 223.752 335.057 223.985C335.557 228.962 326.893 238.528 328.087 240.642C328.705 241.741 331.086 240.062 333.606 237.629C333.627 237.608 333.648 237.585 333.654 237.558C335.577 233.6 340.083 227.498 340.582 228.478C340.985 229.263 337.202 234.138 333.668 237.565C333.648 237.586 333.634 237.612 333.62 237.639C332.912 239.111 332.572 240.275 332.946 240.642C334.036 241.704 336.202 240.26 338.424 238.2C338.458 238.168 338.479 238.128 338.493 238.081C338.757 236.972 340.617 235.49 342.353 234.145C342.36 234.137 342.373 234.126 342.38 234.114C344.151 232.167 345.442 230.689 345.442 231.181C345.442 231.773 343.977 232.885 342.387 234.118C342.373 234.127 342.36 234.137 342.353 234.148C341.193 235.425 339.826 236.897 338.479 238.15C338.451 238.314 338.451 238.47 338.5 238.615C338.785 239.438 341.242 238.588 344.06 237.29C349.128 234.956 353.814 231.904 358.027 228.309C377.59 211.622 395.527 196.149 404.718 177.641C410.085 166.831 410.459 154.371 405.545 143.494C405.489 143.371 405.35 143.31 405.218 143.354C395.014 140.327 383.233 141.462 366.233 156.338C366.17 156.358 366.122 156.395 366.094 156.447Z" fill="#FFCAB3"/>
    <path fillRule="evenodd" clipRule="evenodd" d="M155 244H161.523C168.268 223.991 173.95 183.632 172.867 182.04C171.778 180.448 164.263 226.46 155 244Z" fill="#060022"/>
    <path fillRule="evenodd" clipRule="evenodd" d="M283 96.4157L283.362 100C288.988 98.1886 292.496 98.3691 294 93L283 96.4157Z" fill="white"/>
    <path fillRule="evenodd" clipRule="evenodd" d="M283 97.4925L280.763 101C279.358 99.8304 279.018 100.356 279 99.3743C278.991 98.7612 279.197 98.1546 279.519 97.5809L280.423 96L280.763 97.4179L283 97.4925Z" fill="white"/>
    <path fillRule="evenodd" clipRule="evenodd" d="M202.215 164C202.131 164 202.043 163.945 201.996 163.847C200.099 160.047 201.275 157.36 202.523 155.138C202.607 154.994 202.769 154.957 202.889 155.054C203.004 155.151 203.035 155.347 202.957 155.49C201.745 157.645 200.705 160.041 202.44 163.525C202.518 163.673 202.476 163.866 202.351 163.955C202.309 163.986 202.262 164 202.215 164Z" fill="#060022"/>
    <path fillRule="evenodd" clipRule="evenodd" d="M287.65 74C287.508 74 287.366 73.9687 287.25 73.9024C286.966 73.7485 286.914 73.4674 287.146 73.274C287.443 73.0073 287.65 72.6984 287.715 72.3833C287.766 72.1381 288.089 71.9725 288.438 72.0038C288.799 72.0396 289.045 72.2661 288.993 72.5105C288.89 72.9849 288.606 73.4405 288.154 73.8317C288.025 73.9427 287.831 74 287.65 74Z" fill="#060022"/>
    <path fillRule="evenodd" clipRule="evenodd" d="M57 169.933C68.492 187.982 110.379 187.982 123 179.516C99.7075 172.006 74.3116 166.786 57 169.933Z" fill="#FF5D3C"/>
    <path fillRule="evenodd" clipRule="evenodd" d="M130.034 122.382L121.177 135.706C121.026 135.933 120.719 135.994 120.494 135.843L118.855 134.747L113.2 145.278C109.669 151.848 108.72 159.578 110.899 166.712C111.377 168.274 111.971 169.725 112.708 171.048C121.122 186.601 122.351 211.16 121.757 238H13C23.0869 210.662 42.3457 184.677 71.0494 166.253L94.2964 151.358C96.9804 149.435 99.2545 146.994 100.982 144.177L113.555 123.241C112.544 121.188 112.292 119.134 113.555 117.077C114.866 114.876 116.287 115.022 116.97 116.392C121.948 103.292 135.416 104.395 132.623 116.596C132.151 118.672 131.23 120.621 130.034 122.382Z" fill="#FFCAB3"/>
    <path fillRule="evenodd" clipRule="evenodd" d="M119 137.112L117.173 135.732C116.74 135.479 116.452 135.045 116.396 134.557C116.396 134.557 116.099 131 115.843 131C115.594 131 115.065 134.63 115.065 134.63C114.985 135.202 114.977 135.777 115.049 136.344C115.226 137.825 116.131 139.136 117.397 140L119 137.112Z" fill="#000201"/>
    <path fillRule="evenodd" clipRule="evenodd" d="M94.715 151L71.6438 165.568C42.6462 183.911 23.1902 209.782 13 237H122.871C123.471 210.278 122.229 185.827 113.729 170.342C112.984 169.024 112.384 167.58 111.901 166.025C110.728 162.228 110.459 158.263 111.004 154.394C104.767 155.227 99.165 154.511 94.715 151Z" fill="white"/>
    <path fillRule="evenodd" clipRule="evenodd" d="M57.5 169C32.8371 187.084 20.2271 218.978 11 244H120.495C120.983 222.055 126.951 193.731 122.131 178.433C103.801 187.405 65.7508 184.184 57.5 169Z" fill="#000201"/>
    <path fillRule="evenodd" clipRule="evenodd" d="M129.742 99.2112C132.789 101.376 134.909 105.609 134.997 110.518C135.127 117.71 130.853 123.62 125.455 123.718C123.629 123.751 121.911 123.101 120.425 121.963C117.876 123.844 114.952 124.941 111.83 124.998C101.675 125.182 93.244 114.363 93.0055 100.834C92.7601 87.3043 100.796 76.187 110.951 76.0023C120.868 75.8218 129.129 86.1315 129.742 99.2112Z" fill="#000201"/>
    <path fillRule="evenodd" clipRule="evenodd" d="M137.218 230.302L129.173 233L106 228.054L110.257 204.225L113.805 204L131.244 208.608L138.871 206.192L141 206.416L137.218 230.302Z" fill="white"/>
    <path fillRule="evenodd" clipRule="evenodd" d="M137.218 230.292L129.173 233L106 228.035L110.257 204L131.067 209.642L141 206.483L137.218 230.292Z" fill="#FF5D3C"/>
    <path fillRule="evenodd" clipRule="evenodd" d="M98 244C98 244 111.166 224.909 111.734 221.829C112.337 218.574 115.332 212.12 116.041 212.822C116.742 213.515 115.241 217.556 116.644 218.249C117.17 218.509 120.684 216.577 121.736 214.03C122.55 212.076 123.763 209.758 124.984 209.758C126.555 209.758 123.756 216.979 124.458 217.672C124.984 218.196 126.344 212.387 127.747 209.329C127.965 208.847 128.694 208.908 128.82 209.422C129.922 213.811 128.757 219.058 129.368 219.058C129.887 219.058 131.879 215.837 133.303 213.288C133.534 212.873 134.186 213.071 134.13 213.543C133.688 217.337 131.472 221.235 131.472 221.829C131.472 222.45 132.65 220.913 134.264 218.27C134.425 217.996 134.979 218.504 135 218.823C135 218.823 134.923 220.572 134.769 221.194C133.808 224.951 132.377 227.192 130.56 230.34C130.139 231.064 129.774 231.825 129.48 232.606L123.251 244H98Z" fill="#FFCAB3"/>
    <path fillRule="evenodd" clipRule="evenodd" d="M181 67C183.259 68.1825 185.71 68.8256 188.321 68.9953C189.501 69.0725 190.357 68.1857 189.852 67.4027L189.84 67.3906L181 67Z" fill="#000201"/>
    <path fillRule="evenodd" clipRule="evenodd" d="M180.375 56.0949L186.562 54.0128L186.151 52.8696L192.132 59.7737C192.882 60.4041 193.207 61.4337 192.862 62.3438C192.105 64.3298 190.399 65.6985 187.764 66.4707C183.024 67.8622 177.886 66.44 174.354 63.0278C172.077 60.8294 170.192 58.5781 168.665 56.1322C168.479 55.8375 168.346 55.5181 168.246 55.1862L166.235 48.1926C165.505 45.0103 166.514 41.1643 168.744 38.7504C170.942 36.3671 174.626 34.8769 178.795 37.0675C179.91 37.6554 180.787 38.6132 181.311 39.7499L181.749 41.1918C179.28 41.5648 176.292 43.2647 174.155 44.8143C173.245 45.4768 172.721 46.5345 172.761 47.6497L173.006 54.2637C173.823 55.4586 175.124 55.963 176.717 56.0531C177.328 56.0871 179.798 56.2916 180.375 56.0949Z" fill="#FF5D3C"/>
    <path fillRule="evenodd" clipRule="evenodd" d="M175 56C172.711 55.9039 171.319 55.7777 171.018 52.9599C170.972 52.5835 171.01 52.1927 171.183 51.8514C171.514 51.1853 172.184 50.8476 173.427 51.0663L175 56Z" fill="#FFCAB3"/>
    <path fillRule="evenodd" clipRule="evenodd" d="M174.316 54C173.304 53.6532 172.819 52.9868 173.062 52.3305C173.147 52.1033 173.532 51.9617 173.917 52.0092C174.302 52.0617 174.544 52.2881 174.458 52.5162C174.344 52.8087 174.558 53.1055 175 53.2556L174.316 54Z" fill="#060022"/>
  </g>
</svg>
