<svg viewBox="0 0 415 406" fill="none" xmlns="http://www.w3.org/2000/svg">
  <path d="M0 25C0 11.1929 11.1929 0 25 0H390C403.807 0 415 11.1929 415 25V406H0V25Z" fill="#3252FF"/>
  <mask id="mask0" maskUnits="userSpaceOnUse" x="90" y="146" width="236" height="186">
    <path d="M325.951 146H90.0488V332H325.951V146Z" fill="#C4C4C4"/>
  </mask>
  <g mask="url(#mask0)">
    <path fillRule="evenodd" clipRule="evenodd" d="M320.609 224.682C316.679 217.341 308.735 208.326 288.414 199.852C267.224 189.928 242.535 183.927 214.085 180.183C209.059 179.522 203.992 179.202 198.919 179.202H163.401L156.713 166.812L159.152 165.995C159.501 165.878 159.682 165.49 159.543 165.146L154.151 150.991C153.163 148.362 153.04 146.813 150.308 146.194C143.548 144.662 138.712 152.278 145.91 166.812L152.083 182.299C110.258 213.63 97.3036 256.173 95.4927 299.488H199.928C203.385 267.237 208.9 227.144 207.13 214.823L292.53 236.505L292.437 236.66L321.566 226.659C321.267 225.992 320.954 225.332 320.609 224.682Z" fill="#FFCAB3"/>
    <path fillRule="evenodd" clipRule="evenodd" d="M321.566 226.185C321.267 225.526 316.339 207.593 288.414 199.683C267.224 189.872 242.535 183.94 214.085 180.239C209.059 179.585 203.992 179.268 198.919 179.268L170.686 179.523C172.059 184.627 172.08 190.089 169.142 193.984C166.03 198.115 162.624 199.166 157.485 198.407C153.117 197.762 147.71 195.006 144.587 188.252C108.683 218.553 97.1904 261.606 95.4927 301.756H199.928C203.385 269.873 208.9 226.664 207.13 214.483L292.53 235.919L292.437 236.071C302.171 227.492 311.884 223.344 321.566 226.185Z" fill="#EC5028"/>
    <path fillRule="evenodd" clipRule="evenodd" d="M228.038 167.003C226.478 170.175 223.431 176.388 222.454 178.373C222.276 178.733 222.396 179.164 222.738 179.385L225.296 181.059L227.397 195.476C220.521 209.707 217.217 225.334 214.791 241.303C211.292 263.18 212.516 282.014 215.841 299.487H253.66L262.59 260.869L262.065 215.557C253.897 205.447 244.143 199.309 238.596 195.188C238.007 194.752 237.351 193.836 237.13 193.147L233.086 180.362C232.813 179.514 232.928 178.592 233.385 177.826C238.081 169.957 236.941 164.26 232.629 164.148C230.669 164.097 228.889 165.271 228.038 167.003Z" fill="#FFCAB3"/>
    <path fillRule="evenodd" clipRule="evenodd" d="M233.044 172.04C231.971 170.865 232.375 168.529 232.976 166.384C229.835 166.582 227.694 164.144 228.151 160.776C222.387 159.197 223.216 154.8 227.275 150.021C229.55 145.369 231.54 147.949 233.495 151.604C237.9 152.727 240.269 156.848 240.751 163.745C243.016 165.653 242.384 168.639 240.233 172.19C240.233 172.19 236.781 177.059 234.972 177.735C234.847 177.782 234.702 177.749 234.624 177.638C233.945 176.663 234.013 175.325 234.013 175.325C234.961 175.38 235.858 173.076 235.915 172.579C236.014 171.722 235.666 171.09 234.821 171.102C234.36 171.108 234.049 171.311 233.583 171.993C233.453 172.174 233.194 172.202 233.044 172.04Z" fill="#060022"/>
    <path fillRule="evenodd" clipRule="evenodd" d="M224.029 177.756C224.029 177.776 228.725 178.81 230.834 178.485L230.325 179.102C230.135 179.422 229.944 179.745 229.8 180.087C229.147 181.639 227.074 181.535 227.074 181.535L226.786 179.625C226.786 179.625 224.009 177.931 224.029 177.756Z" fill="#060022"/>
    <path fillRule="evenodd" clipRule="evenodd" d="M196.489 270.547C190.238 257.268 181.938 249.779 173.808 239.101C173.295 238.43 172.916 237.657 172.76 236.83C172.314 234.439 170.784 232.353 169.466 230.35C169.466 230.35 168.169 229.448 168.429 231.468C168.652 233.175 169.419 233.854 168.994 234.22C168.667 234.499 168.019 234.102 167.292 233.511C165.248 231.856 163.604 229.764 162.39 227.438C161.731 226.169 161.212 225.171 160.865 225.191C159.739 225.407 162.25 232.371 161.814 232.543C161.384 232.715 160.32 230.577 160.32 230.577C159.905 230.032 159.646 229.389 159.568 228.708C159.433 227.441 159.096 225.361 158.359 224.891C157.275 224.202 157.622 229.792 157.622 229.792C157.622 229.792 159.22 233.575 158.831 233.962C158.442 234.349 157.254 231.921 157.254 231.921C156.901 231.598 156.657 231.177 156.554 230.713C156.554 230.713 156.082 226.872 155.288 226.911C154.878 226.932 154.634 228.117 154.489 229.359C154.292 231.071 154.582 232.803 155.319 234.361L156.357 236.544C156.574 237 156.346 237.051 155.936 236.756C154.764 235.916 155.589 233.317 154.422 233.145C153.254 232.973 153.384 239.25 155.895 242.216L158.52 247.273C159.179 248.54 159.718 249.865 160.133 251.23C160.419 252.18 160.616 252.899 160.694 253.265C164.491 274.298 170.991 286.142 179.136 293.516C185.995 299.727 198.217 301.486 206.279 296.919C210.201 294.696 212.862 291.531 214.906 285.637L225.541 202.707C213.345 213.538 203.426 244.934 196.489 270.547Z" fill="#FFCAB3"/>
    <mask id="mask1" maskUnits="userSpaceOnUse" x="160" y="188" width="133" height="114">
      <path fillRule="evenodd" clipRule="evenodd" d="M265.494 301.725C264.525 293.728 262.555 280.854 259.745 270.02L254.102 301.725H233.732L217.074 301.679C216.281 297.418 214.901 289.311 214.386 284.864C212.383 290.441 209.783 293.497 205.999 295.656C197.998 300.22 185.868 298.462 179.062 292.256C170.979 284.887 164.528 273.052 160.759 252.033C160.754 252.026 160.754 252.016 160.754 252.008C167.02 250.431 172.704 249.205 178.753 244.135C185.142 251.871 191.357 258.761 196.284 269.303C202.962 244.478 212.419 214.218 224.029 202.544C225.126 199.572 226.331 196.647 227.69 193.779L227.371 191.564L236.293 188.426L237.23 191.447C237.436 192.127 238.069 193.039 238.636 193.47C241.442 195.603 245.365 198.284 249.602 201.77C251.193 202.254 252.954 203.103 254.879 204.38C285.153 231.188 290.028 273.944 292.406 301.725H265.494Z" fill="white"/>
    </mask>
    <g mask="url(#mask1)">
      <path fillRule="evenodd" clipRule="evenodd" d="M292.463 302.4C290.105 274.641 285.4 231.406 254.879 204.38C252.954 203.103 251.193 202.254 249.602 201.77C245.365 198.284 241.442 195.603 238.636 193.47C238.069 193.039 237.436 192.127 237.23 191.447L236.293 188.426L227.371 191.564L227.69 193.779C226.331 196.647 225.126 199.572 224.029 202.544C212.419 214.218 202.962 244.478 196.284 269.303C191.357 258.761 185.142 251.871 178.753 244.135C172.704 249.205 167.02 250.431 160.754 252.008C160.754 252.016 160.754 252.026 160.759 252.033C164.528 273.052 170.979 284.887 179.062 292.256C185.868 298.462 197.998 300.22 205.999 295.656C209.783 293.497 212.383 290.441 214.386 284.864C214.901 289.311 215.565 293.654 216.363 297.915H253.432L259.745 270.02C262.623 281.116 264.62 294.352 265.562 302.297L292.463 302.4Z" fill="#FF5D3C"/>
      <path fillRule="evenodd" clipRule="evenodd" d="M292.463 302.4C290.105 274.641 285.4 231.406 254.879 204.38C252.954 203.103 251.193 202.254 249.602 201.77C245.365 198.284 241.442 195.603 238.636 193.47C238.069 193.039 237.436 192.127 237.23 191.447L236.293 188.426L227.371 191.564L227.69 193.779C226.331 196.647 225.126 199.572 224.029 202.544C212.419 214.218 202.962 244.478 196.284 269.303C191.357 258.761 185.142 251.871 178.753 244.135C172.704 249.205 167.02 250.431 160.754 252.008C160.754 252.016 160.754 252.026 160.759 252.033C164.528 273.052 170.979 284.887 179.062 292.256C185.868 298.462 197.998 300.22 205.999 295.656C209.783 293.497 212.383 290.441 214.386 284.864C214.901 289.311 215.766 297.212 216.559 301.472L253.783 301.524L259.745 270.02C262.623 281.116 264.62 294.352 265.562 302.297L292.463 302.4Z" fill="#0731AD"/>
      <path fillRule="evenodd" clipRule="evenodd" d="M248.284 301.013L247.769 301.003C248.598 255.35 248.763 215.853 242.374 194.886L242.868 194.736C249.278 215.775 249.113 255.314 248.284 301.013Z" fill="#FFC200"/>
      <path fillRule="evenodd" clipRule="evenodd" d="M234.64 301.525L234.125 301.522L234.64 188.881L235.155 188.883L234.64 301.525Z" fill="#FFB195"/>
      <path fillRule="evenodd" clipRule="evenodd" d="M260.893 301.56L260.383 301.487C265.192 268.096 261.289 239.012 256.769 205.336C256.259 201.543 255.744 197.705 255.234 193.812L255.744 193.746C256.254 197.637 256.769 201.475 257.278 205.267C261.804 238.982 265.712 268.098 260.893 301.56Z" fill="#FFB195"/>
      <path fillRule="evenodd" clipRule="evenodd" d="M275.051 301.56L274.541 301.487C278.341 275.099 276.714 250.598 273.105 221.927L273.62 221.862C277.229 250.575 278.856 275.116 275.051 301.56Z" fill="#FFC200"/>
      <path fillRule="evenodd" clipRule="evenodd" d="M220.534 300.97C218.485 263.171 221.208 225.564 228.725 189.602L229.23 189.708C221.723 225.626 219.005 263.187 221.048 300.942L220.534 300.97Z" fill="#FFC200"/>
      <path fillRule="evenodd" clipRule="evenodd" d="M204.521 301.269C204.182 274.887 209.294 241.322 214.561 209.204L215.071 209.287C209.809 241.382 204.696 274.922 205.036 301.262L204.521 301.269Z" fill="#FFB195"/>
      <path fillRule="evenodd" clipRule="evenodd" d="M189.591 301.269C189.437 289.448 190.374 275.264 192.459 257.905L192.969 257.966C190.889 275.302 189.951 289.464 190.106 301.262L189.591 301.269Z" fill="#FFC200"/>
      <path fillRule="evenodd" clipRule="evenodd" d="M163.725 276.497C163.611 267.922 164.291 257.634 165.805 245.043L166.314 245.105C164.806 257.673 164.126 267.939 164.239 276.49L163.725 276.497Z" fill="#FFC200"/>
      <path fillRule="evenodd" clipRule="evenodd" d="M174.66 296.63C174.547 288.12 176.642 274.886 178.661 262.088C179.716 255.425 180.71 249.132 181.353 243.754L181.863 243.816C181.219 249.203 180.226 255.501 179.17 262.169C177.152 274.945 175.062 288.157 175.175 296.622L174.66 296.63Z" fill="#FFB195"/>
      <path fillRule="evenodd" clipRule="evenodd" d="M220.709 201.984C218.814 201.984 216.93 201.913 215.056 201.77L215.097 201.256C226.933 202.164 239.279 200.175 251.796 195.343L251.981 195.825C241.37 199.92 230.877 201.984 220.709 201.984Z" fill="#FFC200"/>
      <path fillRule="evenodd" clipRule="evenodd" d="M208.3 222.475C204.259 222.475 200.248 222.322 196.263 222.016L196.304 221.501C221.594 223.444 247.975 219.196 274.706 208.874L274.891 209.355C252.3 218.078 229.955 222.475 208.3 222.475Z" fill="#FFB195"/>
      <path fillRule="evenodd" clipRule="evenodd" d="M204.027 265.163C188.69 265.163 173.028 264.224 158.149 262.083L158.221 261.573C207.909 268.719 266.325 262.462 291.954 252.566L292.139 253.047C274.13 260 239.98 265.163 204.027 265.163Z" fill="#FFB195"/>
      <path fillRule="evenodd" clipRule="evenodd" d="M213.248 243.305C208.445 243.305 203.636 243.122 198.837 242.753L198.879 242.239C226.413 244.355 254.236 240.348 279.34 230.656L279.525 231.138C258.725 239.167 236.066 243.305 213.248 243.305Z" fill="#FFC200"/>
      <path fillRule="evenodd" clipRule="evenodd" d="M223.489 287.389C204.913 287.389 187.037 286.017 170.778 284.768L170.82 284.254C210.788 287.323 260.533 291.142 306.37 273.445L306.555 273.926C279.278 284.458 250.632 287.389 223.489 287.389Z" fill="#FFC200"/>
      <path fillRule="evenodd" clipRule="evenodd" d="M287.408 301.56L286.898 301.487C288.659 289.262 289.343 276.8 288.999 263.387L289.513 263.375C289.858 276.816 289.174 289.307 287.408 301.56Z" fill="#FFB195"/>
      <path fillRule="evenodd" clipRule="evenodd" d="M214.456 261.683C213.965 273.994 212.761 285.929 208.907 296.463C212.997 293.561 213.951 290.67 215.712 286.371L214.456 261.683Z" fill="#060022"/>
      <path fillRule="evenodd" clipRule="evenodd" d="M251.249 245.049C253.022 260.777 254.857 273.73 257.747 278.317C259.254 272.751 258.267 277.004 259.566 271.255L251.249 245.049Z" fill="#060022"/>
      <path fillRule="evenodd" clipRule="evenodd" d="M292.149 237.069L272.891 267.894C270.446 271.809 267.212 275.187 263.428 277.908C260.835 279.772 260.163 283.867 260.725 285.048C261.234 286.133 263.229 282.764 265.207 282.397C265.701 282.306 266.073 282.822 265.827 283.247C262.326 289.282 258.73 295.681 259.738 297.152C260.672 298.514 266.939 289.969 268.325 288.045C268.43 287.9 268.666 287.959 268.682 288.135C269.06 291.898 262.509 299.131 263.412 300.729C263.879 301.56 265.68 300.291 267.585 298.451C267.601 298.435 267.616 298.418 267.622 298.398C269.076 295.405 272.482 290.791 272.86 291.532C273.164 292.125 270.304 295.812 267.632 298.403C267.616 298.419 267.606 298.438 267.595 298.458C267.06 299.571 266.803 300.452 267.086 300.729C267.91 301.532 269.548 300.441 271.228 298.883C271.254 298.859 271.27 298.828 271.28 298.793C271.48 297.955 272.886 296.834 274.198 295.817C274.204 295.811 274.214 295.802 274.219 295.794C275.558 294.322 276.534 293.204 276.534 293.576C276.534 294.023 275.427 294.864 274.225 295.796C274.214 295.803 274.204 295.811 274.198 295.819C273.322 296.785 272.288 297.897 271.27 298.845C271.249 298.969 271.249 299.087 271.285 299.196C271.501 299.819 273.359 299.176 275.49 298.195C279.321 296.43 282.864 294.122 286.05 291.404C300.841 278.787 314.404 267.088 321.353 253.094C325.41 244.921 325.694 235.5 321.978 227.276C321.936 227.183 321.831 227.137 321.731 227.17C314.015 224.881 305.108 225.74 292.254 236.987C292.207 237.002 292.17 237.031 292.149 237.069Z" fill="#FFCAB3"/>
      <path fillRule="evenodd" clipRule="evenodd" d="M229.322 191.68L229.595 194.39C233.849 193.02 236.501 193.157 237.639 189.097L229.322 191.68Z" fill="white"/>
      <path fillRule="evenodd" clipRule="evenodd" d="M229.322 192.494L227.63 195.146C226.568 194.262 226.311 194.66 226.298 193.917C226.291 193.454 226.446 192.995 226.69 192.561L227.373 191.366L227.63 192.438L229.322 192.494Z" fill="white"/>
      <path fillRule="evenodd" clipRule="evenodd" d="M168.24 242.78C168.177 242.78 168.11 242.739 168.075 242.665C166.641 239.792 167.53 237.76 168.473 236.08C168.537 235.971 168.659 235.943 168.75 236.016C168.837 236.09 168.861 236.238 168.801 236.346C167.885 237.976 167.099 239.787 168.41 242.421C168.47 242.534 168.438 242.679 168.343 242.747C168.312 242.77 168.276 242.78 168.24 242.78Z" fill="#060022"/>
    </g>
  </g>
</svg>
