<svg width="20" height="20" viewBox="0 0 20 20" fill="none" xmlns="http://www.w3.org/2000/svg">
  <path d="M17.9869 12.7043C18.2357 12.9886 18.3779 13.3441 18.3779 13.7351C18.3779 14.375 17.9513 14.9437 17.3826 15.157C17.5603 15.4059 17.6669 15.7258 17.6669 16.0457C17.6669 16.8988 16.9915 17.5742 16.1384 17.5742H10.1309C10.1309 17.5742 10.0954 17.5742 10.0598 17.5742C7.00275 17.1121 6.86056 17.0766 6.54064 17.1121V9.36281C6.54064 9.22062 6.50509 9.07843 6.46954 8.93624C7.67815 7.65654 7.78479 6.51902 9.63325 5.95027C10.3087 5.73698 10.8774 5.31041 11.2684 4.74166L12.9747 2.32444C13.0813 2.18225 13.2591 2.1467 13.4013 2.2178C14.8943 2.8932 15.4275 4.74166 14.5032 6.128L13.579 7.54989H16.5294C17.347 7.54989 18.058 8.18975 18.0935 8.97179C18.1291 9.36281 17.9869 9.71828 17.7736 10.0027C18.3779 10.2159 18.7334 10.7492 18.7334 11.389C18.7334 11.9578 18.4134 12.4199 17.9869 12.7043Z" fill="#3252FF"/>
  <path d="M5.82963 9.3628V17.432C5.82963 17.6098 5.6519 17.7875 5.47416 17.7875H1.6706C1.45731 17.7875 1.31512 17.6098 1.31512 17.432V9.3628C1.31512 9.14951 1.45731 9.00732 1.6706 9.00732H5.50971C5.68744 9.00732 5.82963 9.14951 5.82963 9.3628Z" fill="#3252FF"/>
</svg>
