<svg width="19" height="17" viewBox="0 0 19 17" fill="none" xmlns="http://www.w3.org/2000/svg">
    <path d="M6.59314 14.6808L6.59314 12.5766L9.06557 12.5766L11.538 12.5766L11.538 14.6808L11.538 16.785L13.5333 16.785L15.5286 16.785L15.5286 12.9237L15.5286 9.06229L16.8299 9.06229C17.5456 9.06229 18.1311 9.04611 18.1311 9.02636C18.1311 8.97177 13.8305 4.68029 13.7759 4.68029C13.7497 4.68029 12.6755 3.62722 11.3889 2.34014L9.04964 1.41351e-07L4.52478 4.49329C2.03615 6.9646 -1.64021e-07 9.00361 -1.644e-07 9.02443C-1.64779e-07 9.04526 0.595325 9.06229 1.32296 9.06229L2.64593 9.06229L2.64593 12.9237L2.64593 16.785L4.61953 16.785L6.59314 16.785L6.59314 14.6808Z" fill="white"/>
</svg>