<svg width="50" height="50" viewBox="0 0 50 50" fill="none" xmlns="http://www.w3.org/2000/svg">
    <path d="M35.5294 28.1764C35.3529 27.897 35.1618 27.6323 34.9559 27.3676C34.6618 26.9558 34.3088 26.5587 33.8382 26.0882C33.4118 25.6617 32.9706 25.2793 32.5 24.9411C30.3529 23.294 27.7353 22.4264 25 22.4264C22.2353 22.4264 19.6176 23.3234 17.4853 24.9411C16.6029 25.6029 15.8088 26.397 15.1176 27.294C14.8971 27.5734 14.6912 27.8676 14.4853 28.1764C13.2059 30.1617 12.5 32.5293 12.5 34.9264V35.6617V40.0734V40.8087C12.5 42.0293 13.4853 43.0146 14.7059 43.0146H35.2941C36.5147 43.0146 37.5 42.0293 37.5 40.8087V40.0734V34.9264C37.5 32.4999 36.7941 30.1323 35.5294 28.1764Z"
          fill="url(#paint0_linear)"/>
    <path d="M31.6177 13.6029C31.6177 17.2499 28.6471 20.2205 25 20.2205C21.353 20.2205 18.3824 17.2499 18.3824 13.6029C18.3824 9.94111 21.353 6.98523 25 6.98523C28.6471 6.98523 31.6177 9.94111 31.6177 13.6029Z"
          fill="url(#paint1_linear)"/>
    <path d="M45.5882 13.6029C45.5882 17.2499 42.6176 20.2205 38.9706 20.2205C35.3235 20.2205 32.3529 17.2499 32.3529 13.6029C32.3529 9.94111 35.3235 6.98523 38.9706 6.98523C42.6176 6.98523 45.5882 9.94111 45.5882 13.6029Z"
          fill="url(#paint2_linear)"/>
    <path d="M48.5294 31.9852V37.8676C48.5294 39.0882 47.5441 40.0735 46.3235 40.0735H39.7059V34.9264C39.7059 32.1176 38.8823 29.294 37.397 26.9999C37.1764 26.6617 36.9411 26.3382 36.75 26.0882C36.397 25.5882 35.9853 25.1176 35.397 24.5293C35.0588 24.1911 34.7206 23.8823 34.3823 23.6029C35.7647 22.8382 37.3382 22.4264 38.9706 22.4264C41.5147 22.4264 43.9117 23.4117 45.7206 25.2058C47.5441 27.044 48.5294 29.4411 48.5294 31.9852Z"
          fill="url(#paint3_linear)"/>
    <path d="M15.6323 23.6029C14.8088 24.2793 14.0441 25.0734 13.3823 25.9264C13.1323 26.2499 12.8823 26.5882 12.6323 26.9852C11.1029 29.3529 10.2941 32.1029 10.2941 34.9264V40.0735H3.67646C2.45587 40.0735 1.47058 39.0882 1.47058 37.8676V31.9852C1.47058 26.7205 5.7647 22.4264 11.0294 22.4264C12.6618 22.4264 14.2353 22.8382 15.6323 23.6029Z"
          fill="url(#paint4_linear)"/>
    <path d="M17.647 13.6029C17.647 17.2499 14.6765 20.2205 11.0294 20.2205C7.38233 20.2205 4.41174 17.2499 4.41174 13.6029C4.41174 9.94111 7.38233 6.98523 11.0294 6.98523C14.6765 6.98523 17.647 9.94111 17.647 13.6029Z"
          fill="url(#paint5_linear)"/>
    <defs>
        <linearGradient id="paint0_linear" x1="25" y1="22.4264" x2="25" y2="43.0146" gradientUnits="userSpaceOnUse">
            <stop stop-color="#3252FF"/>
            <stop offset="1" stop-color="#7A58FF"/>
        </linearGradient>
        <linearGradient id="paint1_linear" x1="25" y1="6.98523" x2="25" y2="20.2205" gradientUnits="userSpaceOnUse">
            <stop stop-color="#3252FF"/>
            <stop offset="1" stop-color="#7A58FF"/>
        </linearGradient>
        <linearGradient id="paint2_linear" x1="38.9706" y1="6.98523" x2="38.9706" y2="20.2205"
                        gradientUnits="userSpaceOnUse">
            <stop stop-color="#3252FF"/>
            <stop offset="1" stop-color="#7A58FF"/>
        </linearGradient>
        <linearGradient id="paint3_linear" x1="41.4559" y1="22.4264" x2="41.4559" y2="40.0735"
                        gradientUnits="userSpaceOnUse">
            <stop stop-color="#3252FF"/>
            <stop offset="1" stop-color="#7A58FF"/>
        </linearGradient>
        <linearGradient id="paint4_linear" x1="8.55146" y1="22.4264" x2="8.55146" y2="40.0735"
                        gradientUnits="userSpaceOnUse">
            <stop stop-color="#3252FF"/>
            <stop offset="1" stop-color="#7A58FF"/>
        </linearGradient>
        <linearGradient id="paint5_linear" x1="11.0294" y1="6.98523" x2="11.0294" y2="20.2205"
                        gradientUnits="userSpaceOnUse">
            <stop stop-color="#3252FF"/>
            <stop offset="1" stop-color="#7A58FF"/>
        </linearGradient>
    </defs>
</svg>
