<svg width="48" height="48" viewBox="0 0 48 48" fill="none" xmlns="http://www.w3.org/2000/svg">
  <path d="M47.3413 13.8293C47.0031 14.6381 46.209 15.1543 45.3266 15.1543H41.6501V45.3219C41.6501 46.5425 40.6648 47.5293 39.4443 47.5293H32.0913C30.8707 47.5293 29.8854 46.5425 29.8854 45.3219V15.1528H26.2089C25.3266 15.1528 24.5325 14.6381 24.1795 13.8278C23.8413 13.0337 23.9884 12.0911 24.5913 11.444L34.1501 1.14252C34.9884 0.245462 36.5472 0.245462 37.3854 1.14252L46.9443 11.444C47.5325 12.0925 47.6943 13.0337 47.3413 13.8293Z" fill="#A7B6C8"/>
  <path d="M27.6797 21.7908V45.3217C27.6797 46.5423 26.6944 47.5291 25.4738 47.5291H17.3856C16.165 47.5291 15.1797 46.5423 15.1797 45.3217V21.7908C15.1797 20.5688 16.165 19.5835 17.3856 19.5835H25.4738C26.6944 19.5835 27.6797 20.5688 27.6797 21.7908Z" fill="#A7B6C8"/>
  <path d="M12.9736 27.6766V45.3207C12.9736 46.5413 11.9883 47.5281 10.7678 47.5281H2.67952C1.45893 47.5281 0.473633 46.5413 0.473633 45.3207V27.6766C0.473633 26.4545 1.45893 25.4692 2.67952 25.4692H10.7678C11.9883 25.4692 12.9736 26.456 12.9736 27.6766Z" fill="#A7B6C8"/>
</svg>
