<svg width="40" height="40" viewBox="0 0 40 40" fill="none" xmlns="http://www.w3.org/2000/svg">
    <path d="M13.5059 10.5941C6.69412 10.5941 1.15294 16.1353 1.15294 22.947C1.15294 26.747 2.90588 30.2765 5.85882 32.6059V37.0647C5.85882 37.7706 6.28235 38.4176 6.94117 38.6882C7.1647 38.7823 7.38823 38.8294 7.62353 38.8294C8.08235 38.8294 8.52941 38.6412 8.87059 38.3117L11.9882 35.1941C12.4824 35.2529 12.9882 35.3 13.5059 35.3C20.3176 35.3 25.8588 29.7588 25.8588 22.947C25.8588 16.1353 20.3176 10.5941 13.5059 10.5941ZM7.69412 24.1941C7.3647 24.5235 6.90588 24.7117 6.44706 24.7117C5.97647 24.7117 5.52941 24.5235 5.2 24.1941C4.87059 23.8647 4.68235 23.4059 4.68235 22.947C4.68235 22.4765 4.87059 22.0176 5.2 21.6882C5.84706 21.0412 7.03529 21.0412 7.69412 21.6882C8.02353 22.0294 8.21176 22.4765 8.21176 22.947C8.21176 23.4059 8.02353 23.8529 7.69412 24.1941ZM14.7529 24.1941C14.4235 24.5235 13.9647 24.7117 13.5059 24.7117C13.0353 24.7117 12.5882 24.5235 12.2588 24.1941C11.9294 23.8647 11.7412 23.4059 11.7412 22.947C11.7412 22.4765 11.9294 22.0176 12.2588 21.6882C12.9059 21.0412 14.0941 21.0412 14.7529 21.6882C15.0824 22.0176 15.2706 22.4765 15.2706 22.947C15.2706 23.4059 15.0824 23.8647 14.7529 24.1941ZM21.8118 24.1941C21.4824 24.5235 21.0235 24.7117 20.5647 24.7117C20.0941 24.7117 19.6471 24.5235 19.3176 24.1941C18.9882 23.8529 18.8 23.4059 18.8 22.947C18.8 22.4765 18.9882 22.0294 19.3176 21.6882C19.9647 21.0412 21.1529 21.0412 21.8118 21.6882C22.1412 22.0176 22.3294 22.4765 22.3294 22.947C22.3294 23.4059 22.1412 23.8647 21.8118 24.1941Z"
          fill="url(#paint0_linear)"/>
    <path d="M26.4941 1.17058C21.3176 1.17058 16.8706 4.37058 15.0471 8.91175C22.1059 9.67646 27.6235 15.6765 27.6235 22.947C27.6235 23.9353 27.5176 24.9 27.3294 25.8294C27.5647 25.8176 27.7882 25.7941 28.0118 25.7706L31.1294 28.8882C31.4706 29.2176 31.9176 29.4059 32.3765 29.4059C32.6118 29.4059 32.8353 29.3588 33.0588 29.2647C33.7176 28.9941 34.1412 28.347 34.1412 27.6412V23.1823C37.0941 20.8529 38.8471 17.3235 38.8471 13.5235C38.8471 6.71175 33.3059 1.17058 26.4941 1.17058ZM27.7412 14.7706C27.4118 15.1 26.9647 15.2882 26.4941 15.2882C26.0353 15.2882 25.5765 15.1 25.2471 14.7706C24.9176 14.4412 24.7294 13.9823 24.7294 13.5235C24.7294 13.0529 24.9176 12.5941 25.2471 12.2647C25.9059 11.6176 27.0941 11.6176 27.7412 12.2647C28.0706 12.5941 28.2588 13.0529 28.2588 13.5235C28.2588 13.9823 28.0706 14.4412 27.7412 14.7706ZM34.8 14.7706C34.4706 15.1 34.0235 15.2882 33.5529 15.2882C33.0941 15.2882 32.6353 15.1 32.3059 14.7706C31.9765 14.4294 31.7882 13.9823 31.7882 13.5235C31.7882 13.0529 31.9765 12.6059 32.3059 12.2647C32.9647 11.6176 34.1529 11.6176 34.8 12.2647C35.1294 12.5941 35.3176 13.0529 35.3176 13.5235C35.3176 13.9823 35.1294 14.4412 34.8 14.7706Z"
          fill="url(#paint1_linear)"/>
    <defs>
        <linearGradient id="paint0_linear" x1="13.5059" y1="10.5941" x2="13.5059" y2="38.8294"
                        gradientUnits="userSpaceOnUse">
            <stop stop-color="#3252FF"/>
            <stop offset="1" stop-color="#7A58FF"/>
        </linearGradient>
        <linearGradient id="paint1_linear" x1="26.9471" y1="1.17058" x2="26.9471" y2="29.4059"
                        gradientUnits="userSpaceOnUse">
            <stop stop-color="#3252FF"/>
            <stop offset="1" stop-color="#7A58FF"/>
        </linearGradient>
    </defs>
</svg>
