<svg width="50" height="50" viewBox="0 0 50 50" fill="none" xmlns="http://www.w3.org/2000/svg">
    <path d="M45.0454 5.90907C44.4545 5.27271 43.6364 4.95452 42.7727 4.95452C41.5 4.95452 40 5.59089 38.1364 6.90907V4.1818C38.1364 3.13634 37.2727 2.27271 36.2727 2.27271H14.4545C13.4091 2.27271 12.5909 3.13634 12.5909 4.13634V7.36362C10.4091 5.72725 8.68182 4.90907 7.27272 4.90907C6.36363 4.90907 5.59091 5.22725 5 5.86362C3.45454 7.45453 3.54545 10.6363 3.63636 13.4545C3.63636 14 3.68182 14.5454 3.68182 15C3.68182 20.0909 8.72727 24.2727 15.0909 24.5909C16.9545 27.5909 20.1818 31.6818 24.1818 32.4091V38.9091C24.0909 38.9091 24 38.9091 23.9091 38.9091C21.9545 38.9091 20.0455 38.9545 18.5909 39.6364C16.8636 40.4545 15.9545 42.0455 15.9545 44.3636V47.6818H34.8636V44.3636C34.8636 42.0455 34 40.4091 32.2273 39.6364C30.7727 38.9545 28.9091 38.9091 26.9091 38.9091C26.8182 38.9091 26.7273 38.9091 26.6364 38.9091V32.4091C30.6818 31.6818 33.9091 27.5 35.7727 24.5454C41.7727 23.9545 46.4545 19.9091 46.4545 15C46.4545 14.5454 46.4545 14.0454 46.5 13.4545C46.5 10.6818 46.6364 7.49998 45.0454 5.90907ZM6.04545 15C6.04545 14.5 6.04545 13.9545 6 13.3636C5.95454 11.4091 5.81818 8.45453 6.68181 7.59089C6.77272 7.49998 6.90909 7.40907 7.22727 7.40907C7.90909 7.40907 9.40909 7.86362 12.5455 10.5454V17.8636C12.5455 18.9091 12.9091 20.5 13.3182 21.4545C13.3182 21.4545 13.4091 21.6364 13.5909 22C9.27272 21.2273 6.04545 18.4091 6.04545 15ZM44 13.3636C44 13.9545 43.9545 14.5 43.9545 15C43.9545 18.1818 41.1364 20.9091 37.2273 21.8182C37.3636 21.5909 37.4091 21.4545 37.4091 21.4545C37.8182 20.5 38.1818 18.9091 38.1818 17.8636V9.95453C40.8636 7.77271 42.1818 7.40907 42.8182 7.40907C43.1364 7.40907 43.2727 7.49998 43.3636 7.59089C44.1364 8.45453 44.0455 11.4091 44 13.3636Z"
          fill="url(#paint0_linear)"/>
    <defs>
        <linearGradient id="paint0_linear" x1="25.0482" y1="2.27271" x2="25.0482" y2="47.6818"
                        gradientUnits="userSpaceOnUse">
            <stop stop-color="#3252FF"/>
            <stop offset="1" stop-color="#7A58FF"/>
        </linearGradient>
    </defs>
</svg>
