<svg width="50" height="50" viewBox="0 0 50 50" fill="none" xmlns="http://www.w3.org/2000/svg">
    <path d="M48.3412 14.8294C48.003 15.6382 47.2088 16.1544 46.3265 16.1544H42.65V46.3221C42.65 47.5426 41.6647 48.5294 40.4441 48.5294H33.0912C31.8706 48.5294 30.8853 47.5426 30.8853 46.3221V16.1529H27.2088C26.3265 16.1529 25.5324 15.6382 25.1794 14.8279C24.8412 14.0338 24.9882 13.0912 25.5912 12.4441L35.15 2.14264C35.9882 1.24558 37.5471 1.24558 38.3853 2.14264L47.9441 12.4441C48.5324 13.0926 48.6941 14.0338 48.3412 14.8294Z" fill="white"/>
    <path d="M28.6794 22.7912V46.3221C28.6794 47.5427 27.6941 48.5295 26.4735 48.5295H18.3853C17.1647 48.5295 16.1794 47.5427 16.1794 46.3221V22.7912C16.1794 21.5692 17.1647 20.5839 18.3853 20.5839H26.4735C27.6941 20.5839 28.6794 21.5692 28.6794 22.7912Z" fill="white"/>
    <path d="M13.9735 28.6765V46.3206C13.9735 47.5412 12.9882 48.5279 11.7676 48.5279H3.67939C2.45881 48.5279 1.47351 47.5412 1.47351 46.3206V28.6765C1.47351 27.4544 2.45881 26.4691 3.67939 26.4691H11.7676C12.9882 26.4691 13.9735 27.4559 13.9735 28.6765Z" fill="white"/>
</svg>
