<svg width="40" height="40" viewBox="0 0 40 40" fill="none" xmlns="http://www.w3.org/2000/svg">
    <path d="M28.4235 22.5412C28.2824 22.3176 28.1294 22.1059 27.9647 21.8941C27.7294 21.5647 27.4471 21.247 27.0706 20.8706C26.7294 20.5294 26.3765 20.2235 26 19.9529C24.2824 18.6353 22.1882 17.9412 20 17.9412C17.7882 17.9412 15.6941 18.6588 13.9882 19.9529C13.2824 20.4823 12.6471 21.1176 12.0941 21.8353C11.9176 22.0588 11.7529 22.2941 11.5882 22.5412C10.5647 24.1294 10 26.0235 10 27.9412V28.5294V32.0588V32.647C10 33.6235 10.7882 34.4118 11.7647 34.4118H28.2353C29.2118 34.4118 30 33.6235 30 32.647V32.0588V27.9412C30 26 29.4353 24.1059 28.4235 22.5412Z" fill="white"/>
    <path d="M25.2941 10.8823C25.2941 13.8 22.9176 16.1765 20 16.1765C17.0823 16.1765 14.7059 13.8 14.7059 10.8823C14.7059 7.95294 17.0823 5.58823 20 5.58823C22.9176 5.58823 25.2941 7.95294 25.2941 10.8823Z" fill="white"/>
    <path d="M36.4706 10.8823C36.4706 13.8 34.0941 16.1765 31.1764 16.1765C28.2588 16.1765 25.8823 13.8 25.8823 10.8823C25.8823 7.95294 28.2588 5.58823 31.1764 5.58823C34.0941 5.58823 36.4706 7.95294 36.4706 10.8823Z" fill="white"/>
    <path d="M38.8235 25.5882V30.2941C38.8235 31.2706 38.0353 32.0588 37.0588 32.0588H31.7647V27.9412C31.7647 25.6941 31.1059 23.4353 29.9176 21.6C29.7412 21.3294 29.5529 21.0706 29.4 20.8706C29.1176 20.4706 28.7882 20.0941 28.3176 19.6235C28.047 19.3529 27.7764 19.1059 27.5059 18.8823C28.6117 18.2706 29.8706 17.9412 31.1765 17.9412C33.2117 17.9412 35.1294 18.7294 36.5765 20.1647C38.0353 21.6353 38.8235 23.5529 38.8235 25.5882Z" fill="white"/>
    <path d="M12.5059 18.8823C11.847 19.4235 11.2353 20.0588 10.7059 20.7412C10.5059 21 10.3059 21.2706 10.1059 21.5882C8.88233 23.4823 8.23527 25.6823 8.23527 27.9412V32.0588H2.94116C1.96469 32.0588 1.17645 31.2706 1.17645 30.2941V25.5882C1.17645 21.3765 4.61175 17.9412 8.82351 17.9412C10.1294 17.9412 11.3882 18.2706 12.5059 18.8823Z" fill="white"/>
    <path d="M14.1176 10.8823C14.1176 13.8 11.7412 16.1765 8.82351 16.1765C5.90586 16.1765 3.52939 13.8 3.52939 10.8823C3.52939 7.95294 5.90586 5.58823 8.82351 5.58823C11.7412 5.58823 14.1176 7.95294 14.1176 10.8823Z" fill="white"/>
</svg>
