<svg width="48" height="38" viewBox="0 0 48 38" fill="none" xmlns="http://www.w3.org/2000/svg">
  <path d="M34.5294 22.1768C34.3529 21.8973 34.1618 21.6326 33.9559 21.3679C33.6618 20.9562 33.3088 20.5591 32.8382 20.0885C32.4118 19.6621 31.9706 19.2797 31.5 18.9415C29.3529 17.2944 26.7353 16.4268 24 16.4268C21.2353 16.4268 18.6176 17.3238 16.4853 18.9415C15.6029 19.6032 14.8088 20.3973 14.1176 21.2944C13.8971 21.5738 13.6912 21.8679 13.4853 22.1768C12.2059 24.162 11.5 26.5297 11.5 28.9268V29.662V34.0738V34.8091C11.5 36.0297 12.4853 37.015 13.7059 37.015H34.2941C35.5147 37.015 36.5 36.0297 36.5 34.8091V34.0738V28.9268C36.5 26.5003 35.7941 24.1326 34.5294 22.1768Z" fill="#A7B6C8"/>
  <path d="M30.6176 7.603C30.6176 11.2501 27.647 14.2206 24 14.2206C20.3529 14.2206 17.3823 11.2501 17.3823 7.603C17.3823 3.94123 20.3529 0.985352 24 0.985352C27.647 0.985352 30.6176 3.94123 30.6176 7.603Z" fill="#A7B6C8"/>
  <path d="M44.5883 7.603C44.5883 11.2501 41.6177 14.2206 37.9707 14.2206C34.3236 14.2206 31.353 11.2501 31.353 7.603C31.353 3.94123 34.3236 0.985352 37.9707 0.985352C41.6177 0.985352 44.5883 3.94123 44.5883 7.603Z" fill="#A7B6C8"/>
  <path d="M47.5294 25.9856V31.8679C47.5294 33.0885 46.5441 34.0738 45.3235 34.0738H38.7059V28.9268C38.7059 26.1179 37.8823 23.2944 36.397 21.0003C36.1764 20.6621 35.9411 20.3385 35.75 20.0885C35.397 19.5885 34.9853 19.1179 34.397 18.5297C34.0588 18.1915 33.7206 17.8826 33.3823 17.6032C34.7647 16.8385 36.3382 16.4268 37.9706 16.4268C40.5147 16.4268 42.9117 17.4121 44.7206 19.2062C46.5441 21.0444 47.5294 23.4415 47.5294 25.9856Z" fill="#A7B6C8"/>
  <path d="M14.6325 17.6032C13.8089 18.2797 13.0442 19.0738 12.3825 19.9268C12.1325 20.2503 11.8825 20.5885 11.6325 20.9856C10.1031 23.3532 9.29423 26.1032 9.29423 28.9268V34.0738H2.67658C1.456 34.0738 0.470703 33.0885 0.470703 31.8679V25.9856C0.470703 20.7209 4.76482 16.4268 10.0295 16.4268C11.6619 16.4268 13.2354 16.8385 14.6325 17.6032Z" fill="#A7B6C8"/>
  <path d="M16.6474 7.603C16.6474 11.2501 13.6768 14.2206 10.0298 14.2206C6.3827 14.2206 3.41211 11.2501 3.41211 7.603C3.41211 3.94123 6.3827 0.985352 10.0298 0.985352C13.6768 0.985352 16.6474 3.94123 16.6474 7.603Z" fill="#A7B6C8"/>
</svg>
