<svg width="50" height="50" viewBox="0 0 50 50" fill="none" xmlns="http://www.w3.org/2000/svg">
    <path d="M16.8824 13.2427C8.36766 13.2427 1.44119 20.1691 1.44119 28.6839C1.44119 33.4339 3.63237 37.8456 7.32355 40.7574V46.3309C7.32355 47.2133 7.85296 48.0221 8.67649 48.3603C8.9559 48.478 9.23531 48.5368 9.52943 48.5368C10.103 48.5368 10.6618 48.3015 11.0883 47.8897L14.9853 43.9927C15.603 44.0662 16.2353 44.125 16.8824 44.125C25.3971 44.125 32.3235 37.1986 32.3235 28.6839C32.3235 20.1691 25.3971 13.2427 16.8824 13.2427ZM9.61766 30.2427C9.2059 30.6544 8.63237 30.8897 8.05884 30.8897C7.47061 30.8897 6.91178 30.6544 6.50002 30.2427C6.08825 29.8309 5.85296 29.2574 5.85296 28.6839C5.85296 28.0956 6.08825 27.5221 6.50002 27.1103C7.30884 26.3015 8.79413 26.3015 9.61766 27.1103C10.0294 27.5368 10.2647 28.0956 10.2647 28.6839C10.2647 29.2574 10.0294 29.8162 9.61766 30.2427ZM18.4412 30.2427C18.0294 30.6544 17.4559 30.8897 16.8824 30.8897C16.2941 30.8897 15.7353 30.6544 15.3235 30.2427C14.9118 29.8309 14.6765 29.2574 14.6765 28.6839C14.6765 28.0956 14.9118 27.5221 15.3235 27.1103C16.1324 26.3015 17.6177 26.3015 18.4412 27.1103C18.853 27.5221 19.0883 28.0956 19.0883 28.6839C19.0883 29.2574 18.853 29.8309 18.4412 30.2427ZM27.2647 30.2427C26.853 30.6544 26.2794 30.8897 25.7059 30.8897C25.1177 30.8897 24.5588 30.6544 24.1471 30.2427C23.7353 29.8162 23.5 29.2574 23.5 28.6839C23.5 28.0956 23.7353 27.5368 24.1471 27.1103C24.9559 26.3015 26.4412 26.3015 27.2647 27.1103C27.6765 27.5221 27.9118 28.0956 27.9118 28.6839C27.9118 29.2574 27.6765 29.8309 27.2647 30.2427Z" fill="white"/>
    <path d="M33.1177 1.46326C26.6471 1.46326 21.0883 5.46326 18.8089 11.1397C27.6324 12.0956 34.5295 19.5956 34.5295 28.6838C34.5295 29.9191 34.3971 31.125 34.1618 32.2868C34.456 32.2721 34.7354 32.2427 35.0148 32.2133L38.9118 36.1103C39.3383 36.5221 39.8971 36.7574 40.4707 36.7574C40.7648 36.7574 41.0442 36.6986 41.3236 36.5809C42.1471 36.2427 42.6765 35.4339 42.6765 34.5515V28.978C46.3677 26.0662 48.5589 21.6544 48.5589 16.9044C48.5589 8.38973 41.6324 1.46326 33.1177 1.46326ZM34.6765 18.4633C34.2648 18.875 33.706 19.1103 33.1177 19.1103C32.5442 19.1103 31.9707 18.875 31.5589 18.4633C31.1471 18.0515 30.9118 17.478 30.9118 16.9044C30.9118 16.3162 31.1471 15.7427 31.5589 15.3309C32.3824 14.5221 33.8677 14.5221 34.6765 15.3309C35.0883 15.7427 35.3236 16.3162 35.3236 16.9044C35.3236 17.478 35.0883 18.0515 34.6765 18.4633ZM43.5001 18.4633C43.0883 18.875 42.5295 19.1103 41.9412 19.1103C41.3677 19.1103 40.7942 18.875 40.3824 18.4633C39.9707 18.0368 39.7354 17.478 39.7354 16.9044C39.7354 16.3162 39.9707 15.7574 40.3824 15.3309C41.206 14.5221 42.6912 14.5221 43.5001 15.3309C43.9118 15.7427 44.1471 16.3162 44.1471 16.9044C44.1471 17.478 43.9118 18.0515 43.5001 18.4633Z" fill="white"/>
</svg>
