<svg width="40" height="40" viewBox="0 0 40 40" fill="none" xmlns="http://www.w3.org/2000/svg">
    <path d="M36.0363 4.72727C35.5636 4.21818 34.9091 3.96363 34.2182 3.96363C33.2 3.96363 32 4.47272 30.5091 5.52727V3.34545C30.5091 2.50909 29.8182 1.81818 29.0182 1.81818H11.5636C10.7273 1.81818 10.0727 2.50909 10.0727 3.30909V5.89091C8.32725 4.58181 6.94543 3.92727 5.81816 3.92727C5.09089 3.92727 4.47271 4.18181 3.99998 4.69091C2.76362 5.96363 2.83634 8.50909 2.90907 10.7636C2.90907 11.2 2.94543 11.6364 2.94543 12C2.94543 16.0727 6.9818 19.4182 12.0727 19.6727C13.5636 22.0727 16.1454 25.3455 19.3454 25.9273V31.1273C19.2727 31.1273 19.2 31.1273 19.1272 31.1273C17.5636 31.1273 16.0363 31.1637 14.8727 31.7091C13.4909 32.3637 12.7636 33.6364 12.7636 35.4909V38.1455H27.8909V35.4909C27.8909 33.6364 27.2 32.3273 25.7818 31.7091C24.6182 31.1637 23.1272 31.1273 21.5273 31.1273C21.4545 31.1273 21.3818 31.1273 21.3091 31.1273V25.9273C24.5454 25.3455 27.1272 22 28.6182 19.6364C33.4182 19.1636 37.1636 15.9273 37.1636 12C37.1636 11.6364 37.1636 11.2364 37.2 10.7636C37.2 8.54545 37.3091 6 36.0363 4.72727ZM4.83634 12C4.83634 11.6 4.83634 11.1636 4.79998 10.6909C4.76362 9.12727 4.65452 6.76363 5.34543 6.07272C5.41816 6 5.52725 5.92727 5.7818 5.92727C6.32725 5.92727 7.52725 6.29091 10.0363 8.43636V14.2909C10.0363 15.1273 10.3273 16.4 10.6545 17.1636C10.6545 17.1636 10.7273 17.3091 10.8727 17.6C7.41816 16.9818 4.83634 14.7273 4.83634 12ZM35.2 10.6909C35.2 11.1636 35.1636 11.6 35.1636 12C35.1636 14.5455 32.9091 16.7273 29.7818 17.4546C29.8909 17.2727 29.9272 17.1636 29.9272 17.1636C30.2545 16.4 30.5454 15.1273 30.5454 14.2909V7.96363C32.6909 6.21818 33.7454 5.92727 34.2545 5.92727C34.5091 5.92727 34.6182 6 34.6909 6.07272C35.3091 6.76363 35.2363 9.12727 35.2 10.6909Z" fill="white"/>
</svg>
