<svg width="44" height="46" viewBox="0 0 44 46" fill="none" xmlns="http://www.w3.org/2000/svg">
  <path d="M42.0452 3.90932C41.4543 3.27295 40.6361 2.95477 39.7725 2.95477C38.4997 2.95477 36.9998 3.59113 35.1361 4.90932V2.18204C35.1361 1.13659 34.2725 0.272949 33.2725 0.272949H11.4543C10.4088 0.272949 9.59066 1.13659 9.59066 2.13659V5.36386C7.40884 3.7275 5.68157 2.90931 4.27248 2.90931C3.36339 2.90931 2.59066 3.2275 1.99975 3.86386C0.454298 5.45477 0.545208 8.63659 0.636117 11.4548C0.636117 12.0002 0.681571 12.5457 0.681571 13.0002C0.681571 18.0911 5.72703 22.273 12.0907 22.5911C13.9543 25.5911 17.1816 29.6821 21.1816 30.4093V36.9093C21.0907 36.9093 20.9998 36.9093 20.9088 36.9093C18.9543 36.9093 17.0452 36.9548 15.5907 37.6366C13.8634 38.4548 12.9543 40.0457 12.9543 42.3639V45.6821H31.8634V42.3639C31.8634 40.0457 30.9998 38.4093 29.227 37.6366C27.7725 36.9548 25.9088 36.9093 23.9088 36.9093C23.8179 36.9093 23.727 36.9093 23.6361 36.9093V30.4093C27.6816 29.6821 30.9088 25.5002 32.7725 22.5457C38.7725 21.9548 43.4543 17.9093 43.4543 13.0002C43.4543 12.5457 43.4543 12.0457 43.4998 11.4548C43.4998 8.68205 43.6361 5.50023 42.0452 3.90932ZM3.04521 13.0002C3.04521 12.5002 3.04521 11.9548 2.99975 11.3639C2.9543 9.40932 2.81793 6.45477 3.68157 5.59114C3.77248 5.50023 3.90884 5.40932 4.22703 5.40932C4.90884 5.40932 6.40884 5.86386 9.54521 8.54568V15.8639C9.54521 16.9093 9.90884 18.5002 10.3179 19.4548C10.3179 19.4548 10.4088 19.6366 10.5907 20.0002C6.27248 19.2275 3.04521 16.4093 3.04521 13.0002ZM40.9998 11.3639C40.9998 11.9548 40.9543 12.5002 40.9543 13.0002C40.9543 16.1821 38.1361 18.9093 34.227 19.8184C34.3634 19.5911 34.4088 19.4548 34.4088 19.4548C34.8179 18.5002 35.1816 16.9093 35.1816 15.8639V7.95477C37.8634 5.77295 39.1816 5.40932 39.8179 5.40932C40.1361 5.40932 40.2725 5.50023 40.3634 5.59114C41.1361 6.45477 41.0452 9.40932 40.9998 11.3639Z" fill="#A7B6C8"/>
</svg>
