<svg width="178" height="60" viewBox="0 0 178 60" fill="none" xmlns="http://www.w3.org/2000/svg">
<path fill-rule="evenodd" clip-rule="evenodd" d="M177.911 59.3023H0.815736C0.766782 59.3023 0.727051 58.9905 0.727051 58.6047C0.727051 58.2188 0.766782 57.907 0.815736 57.907H177.911C177.96 57.907 178 58.2188 178 58.6047C178 58.9905 177.96 59.3023 177.911 59.3023" fill="#000201"/>
<path fill-rule="evenodd" clip-rule="evenodd" d="M31.893 46.1305C28.6533 46.1305 25.9682 45.4438 25.4766 44.5457V53.0647C25.4766 56.393 28.3493 59.0911 31.893 59.0911C35.4367 59.0911 38.3094 56.393 38.3094 53.0647V44.5457C37.8177 45.4438 35.1326 46.1305 31.893 46.1305" fill="#B230FF"/>
<path fill-rule="evenodd" clip-rule="evenodd" d="M31.893 41.8184C28.3494 41.8184 25.4766 42.6325 25.4766 43.6366C25.4766 43.7342 25.5045 43.8299 25.5569 43.9234C26.0423 44.7912 28.6938 45.4547 31.893 45.4547C35.0922 45.4547 37.7437 44.7912 38.2292 43.9234C38.2815 43.8299 38.3094 43.7342 38.3094 43.6366C38.3094 42.6325 35.4367 41.8184 31.893 41.8184" fill="#241D1E"/>
<path fill-rule="evenodd" clip-rule="evenodd" d="M160.68 49.3702C157.209 49.3702 154.331 48.8552 153.805 48.1816V54.5709C153.805 57.0671 156.883 59.0907 160.68 59.0907C164.477 59.0907 167.554 57.0671 167.554 54.5709V48.1816C167.027 48.8552 164.151 49.3702 160.68 49.3702" fill="#FFFFC1"/>
<path fill-rule="evenodd" clip-rule="evenodd" d="M160.679 46.364C156.882 46.364 153.805 46.9744 153.805 47.7276C153.805 47.8008 153.834 47.8727 153.89 47.9428C154.41 48.5937 157.251 49.0913 160.679 49.0913C164.108 49.0913 166.948 48.5937 167.468 47.9428C167.525 47.8727 167.554 47.8008 167.554 47.7276C167.554 46.9744 164.476 46.364 160.679 46.364" fill="#241D1E"/>
<path fill-rule="evenodd" clip-rule="evenodd" d="M90.8537 30.0691C88.9463 38.1261 84.0197 59.0912 84.1429 59.0912C84.2226 59.0912 85.0795 59.0947 85.1152 58.9575L93.307 30.0002L90.8537 30.0691" fill="#FFFFC1"/>
<path fill-rule="evenodd" clip-rule="evenodd" d="M94.2235 27.6938L91.984 27.2727C91.984 27.2727 91.9094 27.5368 91.4736 29.7469C91.9349 30.115 92.6835 30.0742 93.6858 29.6724L94.2235 27.6938" fill="#241D1E"/>
<path fill-rule="evenodd" clip-rule="evenodd" d="M57.6098 20.8856C57.6168 20.9245 57.6239 20.963 57.6312 21.0013C58.0739 23.3481 58.2241 25.7418 58.069 28.1257C57.9162 30.4767 58.4073 32.6729 59.3969 34.5758C60.7506 37.1784 63.0918 39.1167 65.8596 40.0454C69.685 41.3289 72.7491 40.9202 75.9 40.4796C77.4221 40.2667 78.808 39.4437 79.6801 38.1695C80.6574 36.7418 80.7472 35.1599 79.8698 33.4097C79.2235 32.1207 78.1984 31.0641 76.9566 30.3423C74.5499 28.9437 69.2126 25.6897 66.8231 23.0255C64.9253 20.9095 63.1486 18.8953 62.7922 18.4792C62.2896 17.8924 61.6071 17.4762 60.835 17.3279C60.2063 17.207 59.5685 17.2637 58.9111 17.7108C57.8887 18.4062 57.3898 19.6631 57.6098 20.8856" fill="#241D1E"/>
<path fill-rule="evenodd" clip-rule="evenodd" d="M63.9373 37.2725L59.3911 59.0907H59.8767L66.7242 38.1846L63.9373 37.2725" fill="#241D1E"/>
<path fill-rule="evenodd" clip-rule="evenodd" d="M78.7325 37.2725L83.2242 59.0907H82.7291L75.8911 38.1856L78.7325 37.2725" fill="#241D1E"/>
<path fill-rule="evenodd" clip-rule="evenodd" d="M71.463 25.4548L73.5883 27.641C73.6642 27.7191 73.7619 27.7725 73.8686 27.7949C78.3377 28.7339 82.4606 30.2738 84.6289 31.4062C86.1709 32.2115 87.0707 33.8888 86.86 35.6144C86.715 36.8016 86.316 38.1061 85.8197 39.4556C85.4214 40.5386 84.9774 41.6046 84.4924 42.6519C82.55 46.8463 80.8843 51.3392 79.8972 56.5634L83.6609 58.712C83.7906 58.7861 83.7448 58.983 83.5957 58.9925C81.2943 59.1391 78.8849 59.1181 76.386 58.9581C76.2637 58.9581 76.1641 58.8609 76.1604 58.7389C76.0983 56.6882 76.3677 54.0203 76.7677 51.109C77.8065 44.7866 78.9033 38.6926 80.7628 35.61L71.3076 32.4836L71.463 25.4548" fill="#FF887A"/>
<path fill-rule="evenodd" clip-rule="evenodd" d="M78.6406 59.031C80.4889 59.1226 82.2813 59.1123 84.0085 58.9831C84.1478 58.9727 84.1905 58.7566 84.0695 58.6753L80.6209 56.364C79.7697 56.97 79.3154 57.7587 78.6406 59.031" fill="#241D1E"/>
<path fill-rule="evenodd" clip-rule="evenodd" d="M75.9285 56.364C75.8923 57.2068 75.8808 57.9994 75.901 58.7275C75.9052 58.879 76.0183 58.9996 76.1572 58.9996C76.6832 59.0366 77.2054 59.0666 77.7244 59.0913C77.0697 57.4894 77.0052 57.1419 75.9285 56.364" fill="#241D1E"/>
<path fill-rule="evenodd" clip-rule="evenodd" d="M74.9904 29.0083C80.5512 30.0315 75.9162 21.2068 75.8679 19.9998C74.7836 20.3864 74.9904 29.0083 74.9904 29.0083" fill="#008583"/>
<path fill-rule="evenodd" clip-rule="evenodd" d="M70.5683 11.9863C73.1317 12.5628 74.6075 16.6224 76.2831 20.4414L78.5424 14.396L78.6096 14.1683C78.8292 13.4229 79.4062 12.2567 79.6278 12.4682C79.8493 12.6795 79.4728 13.1277 79.6499 13.2122C79.8272 13.2967 81.0898 11.443 81.112 11.8869C81.134 12.3307 80.7575 12.7683 80.7353 13.0008C80.7112 13.2543 81.3962 11.6813 81.6546 11.9503C81.8982 12.2039 81.3335 13.0008 81.2891 13.2967C81.2494 13.5615 81.7349 12.2006 81.9094 12.3837C82.1308 12.6162 81.8207 13.4658 81.865 13.5927C81.9094 13.7195 81.9869 12.9755 82.2527 13.1869C82.4596 13.3514 82.027 14.1593 81.8208 15.1569C81.0743 19.7127 80.192 24.0324 78.2094 26.4399C77.5821 27.2017 76.5028 27.4831 75.5674 27.1068C73.4063 26.2372 71.5214 22.9151 70.3911 20.0144L70.5683 11.9863" fill="#FF887A"/>
<path fill-rule="evenodd" clip-rule="evenodd" d="M115.317 37.0236C115.081 41.5484 118.938 47.8167 122.448 55.412L118.409 59.091L129.056 58.3676L127.873 52.0538C126.605 46.5734 125.286 41.5838 123.835 37.8599C123.284 36.4488 122.294 35.221 120.972 34.3832C119.794 33.6358 118.582 33.3511 117.303 33.9901C116.114 34.5842 115.383 35.7539 115.317 37.0236" fill="#FF887A"/>
<path fill-rule="evenodd" clip-rule="evenodd" d="M75.9411 19.2905C75.9294 19.224 75.9178 19.1574 75.9062 19.0908L75.8398 19.9999L75.9411 19.2905" fill="#FF887A"/>
<path fill-rule="evenodd" clip-rule="evenodd" d="M75.8915 19.7019C74.1601 15.7688 72.6268 11.413 69.7868 10.9092L69.4751 19.0144C70.5582 21.7776 73.1962 27.0664 75.1202 28.1819C76.9557 26.1775 74.5251 22.0535 75.8915 19.7019" fill="#FBFFFC"/>
<path fill-rule="evenodd" clip-rule="evenodd" d="M76.8108 49.091C79.8528 42.5329 85.2539 37.1323 83.9378 34.0066C83.7277 33.5079 82.9507 33.5157 82.7423 34.0148C81.2737 37.5316 76.6701 49.0359 76.8108 49.091" fill="#241D1E"/>
<path fill-rule="evenodd" clip-rule="evenodd" d="M74.0594 18.1535C74.1089 18.305 74.5953 17.8253 74.9743 17.2727C74.55 17.5127 74.0233 18.0434 74.0594 18.1535" fill="#FF887A"/>
<path fill-rule="evenodd" clip-rule="evenodd" d="M74.9743 17.2029C74.6905 17.2404 74.3775 17.2892 74.0576 17.3428C74.4407 17.2975 74.7723 17.2512 74.9743 17.2029" fill="#FF887A"/>
<path fill-rule="evenodd" clip-rule="evenodd" d="M77.7236 30.9092C78.0336 31.211 78.3393 31.5138 78.6403 31.8183C78.3393 31.5138 78.0336 31.211 77.7236 30.9092" fill="#FF887A"/>
<path fill-rule="evenodd" clip-rule="evenodd" d="M75.8911 30.0002C76.2003 30.3018 76.5058 30.6046 76.8077 30.9093C76.5058 30.6046 76.2003 30.3018 75.8911 30.0002" fill="#FF887A"/>
<path fill-rule="evenodd" clip-rule="evenodd" d="M77.7236 30.9092C78.0332 31.2112 78.339 31.514 78.6403 31.8183C78.339 31.514 78.0332 31.2112 77.7236 30.9092" fill="#FF887A"/>
<path fill-rule="evenodd" clip-rule="evenodd" d="M79.5576 30.9092C80.2078 31.206 80.8212 31.5086 81.3909 31.8183C80.8212 31.5086 80.2078 31.206 79.5576 30.9092" fill="#FF887A"/>
<path fill-rule="evenodd" clip-rule="evenodd" d="M74.9746 30.0002C75.2847 30.3013 75.5905 30.6043 75.8912 30.9093C75.5905 30.6043 75.2847 30.3013 74.9746 30.0002" fill="#FF887A"/>
<path fill-rule="evenodd" clip-rule="evenodd" d="M72.1704 25.4548V25.4548L72.2778 26.3639L72.1704 25.4548" fill="#FF887A"/>
<path fill-rule="evenodd" clip-rule="evenodd" d="M76.8076 30.0002C77.117 30.3016 77.4225 30.6048 77.7243 30.9093C77.4225 30.6048 77.117 30.3016 76.8076 30.0002" fill="#FF887A"/>
<path fill-rule="evenodd" clip-rule="evenodd" d="M83.2244 33.6364C83.0371 33.4792 82.8269 33.345 82.5969 33.239C82.2201 33.0657 81.8173 32.8951 81.3911 32.7273C81.8173 32.8951 82.2201 33.0657 82.5969 33.239C82.8269 33.345 83.0371 33.4792 83.2244 33.6364" fill="#FF887A"/>
<path fill-rule="evenodd" clip-rule="evenodd" d="M83.2243 37.2725C82.9293 37.5725 82.6234 37.8755 82.3076 38.1816C82.6234 37.8755 82.9293 37.5725 83.2243 37.2725" fill="#FF887A"/>
<path fill-rule="evenodd" clip-rule="evenodd" d="M83.2243 39.0911C82.9245 39.3919 82.6188 39.6951 82.3076 40.0002C82.6188 39.6951 82.9245 39.3919 83.2243 39.0911" fill="#FF887A"/>
<path fill-rule="evenodd" clip-rule="evenodd" d="M82.3077 40C82.0073 40.3011 81.7016 40.6045 81.3911 40.9091C81.7016 40.6045 82.0073 40.3011 82.3077 40" fill="#FF887A"/>
<path fill-rule="evenodd" clip-rule="evenodd" d="M83.2928 37.2725C83.2487 37.5716 83.2021 37.8747 83.1533 38.1816C83.2021 37.8747 83.2487 37.5716 83.2928 37.2725" fill="#FF887A"/>
<path fill-rule="evenodd" clip-rule="evenodd" d="M84.1375 34.5452C84.1457 34.8457 84.1457 35.1492 84.137 35.4543C84.1457 35.1492 84.1457 34.8457 84.1375 34.5452" fill="#FF887A"/>
<path fill-rule="evenodd" clip-rule="evenodd" d="M83.2243 37.2725C82.9371 37.5703 82.6308 37.8734 82.3076 38.1816C82.6308 37.8734 82.9371 37.5703 83.2243 37.2725" fill="#FF887A"/>
<path fill-rule="evenodd" clip-rule="evenodd" d="M83.2246 32.7273C83.5488 33.0212 83.8543 33.3245 84.1412 33.6364C83.8543 33.3245 83.5488 33.0212 83.2246 32.7273" fill="#FF887A"/>
<path fill-rule="evenodd" clip-rule="evenodd" d="M84.0762 32.7273C84.122 33.0229 84.1647 33.3262 84.2044 33.6364C84.1647 33.3262 84.122 33.0229 84.0762 32.7273" fill="#FF887A"/>
<path fill-rule="evenodd" clip-rule="evenodd" d="M84.1054 33.6365C84.132 33.9351 84.1553 34.2382 84.1751 34.5456C84.1553 34.2382 84.132 33.9351 84.1054 33.6365" fill="#FF887A"/>
<path fill-rule="evenodd" clip-rule="evenodd" d="M64.893 25.4519L64.8906 25.4567L64.893 25.4519" fill="#FF887A"/>
<path fill-rule="evenodd" clip-rule="evenodd" d="M84.4247 31.9413C82.2897 30.88 78.23 29.4368 73.8293 28.5567C73.7243 28.5357 73.6281 28.4856 73.5534 28.4124L71.4607 26.3635L71.3076 32.951L79.262 35.4544C81.1738 33.8872 83.7298 33.4063 85.9738 33.2756C85.5929 32.7241 85.0655 32.2598 84.4247 31.9413" fill="#B230FF"/>
<path fill-rule="evenodd" clip-rule="evenodd" d="M67.7275 4.6199L67.7479 7.332L67.3843 7.39688L67.6552 8.33994C68.0667 9.77237 69.013 11.0011 70.3091 11.7727C70.3185 11.7783 70.3278 11.7838 70.3372 11.7894L70.7339 15.1C70.8868 16.3712 70.6944 17.2836 70.2711 17.9561L71.7476 26.806L72.1443 29.8569C76.2028 30.8172 79.8673 31.8209 82.4098 32.9481C83.7023 33.521 84.3992 34.9163 84.0525 36.2664C83.6323 37.9019 82.4986 40.0036 81.1354 42.2554C78.792 46.4056 76.93 51.2696 75.3837 56.6013L78.6044 58.7682C78.7342 58.8555 78.6792 59.0549 78.5222 59.0647C77.1424 59.1503 72.9235 59.0278 71.1264 58.6947C70.9195 58.6562 70.7828 58.4619 70.8188 58.2582L71.5493 54.1347C73.1077 45.441 75.3018 39.678 78.0942 36.6729C75.4021 37.6421 71.9329 37.5591 67.9781 36.8185C65.8763 36.4249 64.2553 34.7382 64.0197 32.6498C63.9451 31.9875 63.9613 31.2309 64.0893 30.3587C64.2889 28.9986 64.7236 27.682 65.3494 26.4529L66.2711 24.6428C66.3936 24.4025 66.4416 24.1323 66.4095 23.8654L65.7315 18.2375L65.2688 11.9408C65.8278 11.1386 66.1181 10.1852 66.0995 9.2134L66.062 7.26702C65.7963 5.43272 66.1046 3.32357 67.0097 3.67523C67.4624 3.85115 67.7174 4.14179 67.7275 4.6199" fill="#FF887A"/>
<path fill-rule="evenodd" clip-rule="evenodd" d="M82.8351 33.3547C82.6401 33.1995 82.4213 33.067 82.1818 32.9625C81.7895 32.7913 81.3701 32.623 80.9264 32.4573C80.3051 32.2253 79.6362 31.9986 78.9273 31.7762C78.8261 31.7445 78.724 31.7127 78.621 31.6811C78.4153 31.6179 78.2062 31.5551 77.9943 31.4925C77.7823 31.4301 77.5672 31.3679 77.3494 31.3059C77.1316 31.244 76.911 31.1824 76.6876 31.1212C76.4643 31.0598 76.2383 30.9989 76.0097 30.9382C75.6671 30.8471 75.3188 30.7566 74.9654 30.6666C74.0232 30.4267 73.0455 30.1907 72.0435 29.9573L71.6517 26.9909L71.5454 26.3635C69.5973 26.8776 67.5042 26.8916 65.3348 26.643L65.3325 26.6476C64.7144 27.8426 64.285 29.1227 64.0879 30.4451C63.9615 31.2931 63.9455 32.0286 64.0192 32.6727C64.2518 34.7031 65.7429 36.3318 67.9287 36.7258C71.8239 37.4279 75.2366 37.5257 77.8915 36.5939C79.4074 35.2004 81.0707 34.1893 83.2244 33.7302C83.108 33.5946 82.9781 33.4684 82.8351 33.3547" fill="#B230FF"/>
<path fill-rule="evenodd" clip-rule="evenodd" d="M71.308 25.9005L70.1736 17.4567C70.5999 16.7625 70.7715 15.7318 70.6174 14.42L69.9961 11.0709C69.9866 11.0651 69.9773 11.0595 69.9677 11.0536C69.1586 10.56 68.4851 9.88491 67.9911 9.09106C67.2981 9.30217 66.5545 9.37761 65.6885 9.12532C65.5915 9.87613 65.3202 10.5969 64.8916 11.2272L65.3576 17.7246L66.0404 23.5319C66.0728 23.8073 66.0244 24.0862 65.901 24.3342L64.9752 26.1971C67.1873 26.461 69.3217 26.446 71.308 25.9005" fill="#FBFFFC"/>
<path fill-rule="evenodd" clip-rule="evenodd" d="M68.0922 30.0003C65.9384 28.706 66.8655 25.445 67.3023 22.7275C69.3495 25.5364 70.5716 28.1818 68.0922 30.0003" fill="#008583"/>
<path fill-rule="evenodd" clip-rule="evenodd" d="M65.6646 10.9092C60.7234 13.0547 61.8091 20.7012 63.9141 25.6313C65.1303 27.7613 66.5458 28.3723 68.0501 28.1332C69.4383 27.9126 70.6231 26.9773 71.2454 25.6802C72.5739 22.9113 73.8337 20.6455 74.7883 18.9146C74.8724 18.7619 74.9398 18.6011 75.0122 18.4423C75.0737 18.307 75.1904 18.1946 75.3474 18.0991C75.3474 18.0991 75.7793 17.9165 75.6797 17.7111C75.58 17.5056 74.738 18.0991 74.8156 17.8936C74.8495 17.8038 74.9619 17.7248 75.0776 17.6644C75.2133 17.5935 75.2858 17.496 75.436 17.4714C75.6673 17.4336 75.8792 17.3231 75.8902 17.1632C75.9175 16.7702 74.4779 17.3684 74.5497 17.46C74.651 17.5892 75.868 16.9807 75.7683 16.6611C75.6555 16.2994 74.3281 17.2318 74.3281 17.0263C74.3281 16.8208 75.2809 16.7867 75.3917 16.5583C75.5024 16.3301 74.2514 16.325 73.7077 16.547C72.2373 17.0594 71.0301 17.9932 70.1182 19.4001L67.26 23.1206L66.1077 16.7295L65.6646 10.9092" fill="#FF887A"/>
<path fill-rule="evenodd" clip-rule="evenodd" d="M66.2496 16.2841L64.941 10.9092C60.1284 12.8454 60.7371 19.3658 62.607 24.1464C62.8551 24.7806 63.0476 25.4336 63.1661 26.101C64.0997 31.3607 67.7276 29.7939 67.64 29.7437C65.8514 28.7195 66.7952 22.6341 66.7952 22.6341L66.2535 16.3288L66.2496 16.2841" fill="#FBFFFC"/>
<path fill-rule="evenodd" clip-rule="evenodd" d="M127.944 3.51171L126.81 6.26025C126.786 6.32105 126.821 6.38934 126.884 6.40518L127.554 6.57288L128.543 9.14373L127.028 20.35L127.752 29.1831C123.499 29.015 119.471 28.9336 116.743 29.3549C114.729 29.6657 112.996 30.9606 112.147 32.8144C111.225 34.826 110.873 37.2695 110.369 39.5983L107.801 51.6615L103.39 52.848C105.625 54.8817 108.598 55.3544 110.698 56.3637C113.937 49.6478 117.355 42.8845 118.007 36.8517C124.496 37.436 130.473 37.8281 133.941 36.5C136.593 35.502 137.944 32.6716 138.222 28.3262C137.848 20.9305 136.587 14.2562 132.748 9.67967C131.902 8.67004 131.14 7.5924 130.498 6.4413C130.23 5.96203 130.154 5.39747 130.292 4.86644C130.589 3.72743 130.401 3.37043 129.749 2.92862C129.111 2.49526 128.231 2.79435 127.944 3.51171" fill="#FF887A"/>
<path fill-rule="evenodd" clip-rule="evenodd" d="M137.803 29.9772C139.334 22.0283 136.501 12.6848 132.174 8.06753C131.948 7.82653 131.606 7.27319 131.606 7.27319C130.723 7.59384 129.751 7.97428 128.759 8.21264C128.827 8.39356 128.846 8.58988 128.815 8.781L127.223 18.4096L128.106 28.2004C127.649 28.1819 133.74 30.2404 137.803 29.9772" fill="#008583"/>
<path fill-rule="evenodd" clip-rule="evenodd" d="M130.889 24.6412C130.889 24.9586 131.981 25.486 132.722 25.4533C131.959 24.8144 130.889 24.3331 130.889 24.6412" fill="#008583"/>
<path fill-rule="evenodd" clip-rule="evenodd" d="M131.899 24.6316C131.899 24.6316 130.926 25.2887 130.89 25.4046C130.865 25.4819 131.975 25.4902 132.722 25.281C132.563 24.6744 132.216 24.3898 131.899 24.6316" fill="#008583"/>
<path fill-rule="evenodd" clip-rule="evenodd" d="M79.3503 13.6364C79.3408 13.6364 79.3313 13.636 79.3217 13.6351C79.239 13.6279 79.1848 13.5912 79.2006 13.5533C79.3888 13.1003 79.0411 12.9438 78.7172 12.8581C78.6441 12.8388 78.619 12.796 78.661 12.7625C78.7028 12.7289 78.796 12.7174 78.8688 12.7366C79.4635 12.894 79.67 13.1697 79.4996 13.5795C79.4858 13.6131 79.422 13.6364 79.3503 13.6364" fill="#241D1E"/>
<path fill-rule="evenodd" clip-rule="evenodd" d="M44.229 51.5834C38.9064 51.5834 34.4983 50.9413 33.7256 50.1034C34.5519 55.2004 38.953 59.0909 44.2592 59.0909C49.601 59.0909 54.0248 55.1475 54.8082 50C54.3172 50.8878 49.7686 51.5834 44.229 51.5834" fill="#FBFFFC"/>
<path fill-rule="evenodd" clip-rule="evenodd" d="M50.8457 48.4806C49.0331 48.2936 46.7331 48.1816 44.2297 48.1816C41.7263 48.1816 39.4263 48.2936 37.6136 48.4806C35.8214 48.6655 34.506 48.9239 33.9431 49.2203C33.7861 49.303 33.704 49.4503 33.7305 49.5977C33.7307 49.5987 33.7309 49.6 33.7312 49.6012C33.7511 49.7119 33.8291 49.8109 33.9473 49.8726C35.0859 50.4676 39.2575 50.9089 44.2297 50.9089C49.7514 50.9089 54.2854 50.3647 54.7747 49.67C54.7867 49.6083 54.7979 49.5464 54.8082 49.4842C54.6691 49.0784 53.1527 48.7186 50.8457 48.4806" fill="#241D1E"/>
<path fill-rule="evenodd" clip-rule="evenodd" d="M41.4415 48.8036C42.4494 49.547 43.5021 50.2347 44.5256 50.9088C47.8306 46.9801 43.262 38.0915 37.824 37.2931C36.581 37.1105 35.4918 38.1653 35.5623 39.4822C35.6498 41.1176 36.0732 42.5238 36.7279 43.7602L41.4415 48.8036" fill="#FFFFC1"/>
<path fill-rule="evenodd" clip-rule="evenodd" d="M45.5434 50.9088C45.4944 50.9088 45.452 50.871 45.4459 50.8195C44.8292 45.5394 41.9927 41.2936 36.5186 37.4578C36.4738 37.4263 36.462 37.3632 36.4926 37.3168C36.5231 37.2707 36.5842 37.2584 36.6293 37.2901C42.1537 41.1613 45.0173 45.4527 45.6412 50.7954C45.6477 50.8509 45.6092 50.9014 45.5552 50.9082C45.5513 50.9086 45.5474 50.9088 45.5434 50.9088" fill="#000201"/>
<path fill-rule="evenodd" clip-rule="evenodd" d="M43.2392 44.5456C43.2245 44.5456 43.2098 44.5437 43.1954 44.5396C43.1297 44.521 43.0961 44.465 43.1202 44.4143C43.9462 42.687 43.5997 41.0921 41.997 39.2428C41.958 39.1979 41.9738 39.1373 42.0321 39.1075C42.0904 39.0775 42.169 39.0897 42.2079 39.1345C43.8601 41.0409 44.215 42.6901 43.3582 44.4817C43.3394 44.5212 43.2908 44.5456 43.2392 44.5456" fill="#000201"/>
<path fill-rule="evenodd" clip-rule="evenodd" d="M47.5603 50.9092C50.4308 49.0971 51.3515 47.3775 51.1035 45.752C51.0875 45.6471 51.0633 45.5423 51.0356 45.439C50.6582 44.0352 50.0578 43.5624 49.3244 43.6457C48.6253 43.7251 48.0754 44.2789 47.8226 45.0732C47.3792 46.4668 47.4461 48.578 47.5603 50.9092" fill="#FFFFC1"/>
<path fill-rule="evenodd" clip-rule="evenodd" d="M42.8093 50.9093C38.5013 48.604 37.0996 46.4469 37.4406 44.4263C37.4627 44.2961 37.4968 44.1659 37.5364 44.0376C38.0741 42.2955 38.9601 41.7167 40.0539 41.8326C41.0968 41.9432 41.9258 42.6423 42.3162 43.6359C43.0015 45.3791 42.9385 48.0077 42.8093 50.9093" fill="#008583"/>
<path fill-rule="evenodd" clip-rule="evenodd" d="M160.693 47.2726C157.891 42.9063 157.856 40.0463 159.449 38.1383C159.552 38.0154 159.666 37.8981 159.786 37.7854C161.399 36.2538 162.63 36.0749 163.635 36.7033C164.591 37.3024 164.972 38.4041 164.736 39.6026C164.326 41.7051 162.627 44.3647 160.693 47.2726" fill="#241D1E"/>
<path fill-rule="evenodd" clip-rule="evenodd" d="M47.569 50.9092C47.5454 50.9092 47.5216 50.8999 47.5035 50.8814C47.4667 50.8441 47.4663 50.783 47.5024 50.745C48.7803 49.406 49.61 47.1081 50.0393 43.7204C50.0459 43.6677 50.0924 43.6301 50.1441 43.6374C50.1952 43.6442 50.2314 43.6926 50.2247 43.7455C49.79 47.1764 48.9431 49.5103 47.6357 50.8804C47.6174 50.8996 47.5933 50.9092 47.569 50.9092" fill="#000201"/>
<path fill-rule="evenodd" clip-rule="evenodd" d="M66.7243 6.36344C66.229 6.25115 65.9134 6.05264 65.8172 5.74902C65.7948 5.67835 65.8105 5.60206 65.8761 5.5437C65.9496 5.47793 66.0463 5.45342 66.1569 5.45437C66.4599 5.45736 66.6949 5.62932 66.7028 5.82544L66.7243 6.36344" fill="#FF887A"/>
<path fill-rule="evenodd" clip-rule="evenodd" d="M67.5397 6.79956L67.1615 6.77308C67.0347 6.76409 66.9231 6.6772 66.8726 6.54824L66.8123 6.39399C66.7922 6.34233 66.7223 6.36067 66.7252 6.41676C66.7254 6.42048 66.7256 6.42431 66.7258 6.42791C66.746 6.78494 66.975 7.08529 67.288 7.17326L67.6417 7.27262L67.5397 6.79956" fill="#241D1E"/>
<path fill-rule="evenodd" clip-rule="evenodd" d="M66.4552 5.45426C66.4251 5.45426 66.395 5.45068 66.3649 5.44273C66.0569 5.36123 65.9225 5.2209 65.8633 5.11755C65.7451 4.90844 65.8467 4.71484 65.8805 4.66078C65.9429 4.561 66.102 4.51727 66.2375 4.56378C66.3724 4.60989 66.4305 4.72796 66.3687 4.82734C66.3531 4.85239 66.3311 4.91321 66.3595 4.9641C66.3837 5.00703 66.4461 5.04201 66.5456 5.06825C66.6859 5.10522 66.7585 5.21892 66.7085 5.32267C66.6692 5.40377 66.5655 5.45426 66.4552 5.45426" fill="#241D1E"/>
<path fill-rule="evenodd" clip-rule="evenodd" d="M74.0576 58.9313C76.053 59.084 78.4143 59.1272 79.3962 59.0618C79.5597 59.0509 79.6172 58.8277 79.482 58.73L76.2072 56.364C75.3015 56.8264 74.5497 57.6087 74.0576 58.9313" fill="#241D1E"/>
<path fill-rule="evenodd" clip-rule="evenodd" d="M70.8111 56.364L70.3978 58.4073C70.3561 58.614 70.5144 58.8111 70.754 58.8501C71.3612 58.9486 72.2076 59.029 73.141 59.0913C72.9153 57.6448 71.9202 56.9486 70.8111 56.364" fill="#241D1E"/>
<path fill-rule="evenodd" clip-rule="evenodd" d="M128.139 6.39808L128.919 6.45188C129.163 6.46871 129.396 6.33184 129.516 6.0998C129.516 6.0998 129.875 5.36792 129.956 5.46284C130.038 5.55764 129.788 6.17446 129.788 6.17446C129.488 6.7235 129.164 7.10117 128.641 7.21861L128.446 7.27253L128.139 6.39808" fill="#241D1E"/>
<path fill-rule="evenodd" clip-rule="evenodd" d="M107.65 50.9092L103.39 52.5302C105.784 54.7478 108.968 55.2631 111.217 56.3637C111.662 55.4237 112.111 54.4828 112.556 53.5429L108.123 51.1909L107.65 50.9092" fill="#B230FF"/>
<path fill-rule="evenodd" clip-rule="evenodd" d="M128.185 29.185C124.499 29.0587 119.671 29.0062 117.271 29.3773C115.274 29.6861 113.554 30.9728 112.712 32.8152C111.798 34.813 111.449 37.2398 110.95 39.5525L107.974 51.2371L112.516 53.6363C115.312 47.8222 117.959 42.0476 118.522 36.8244C124.956 37.4047 130.882 37.7941 134.321 36.475C136.367 35.7034 137.633 33.8291 138.223 31.0013C134.234 30.6693 132.276 30.1018 128.185 29.185" fill="#241D1E"/>
<path fill-rule="evenodd" clip-rule="evenodd" d="M128.511 52.2807C127.271 47.0032 125.981 42.1983 124.562 38.6123C124.024 37.2534 123.055 36.071 121.763 35.2643C120.611 34.5445 119.426 34.2703 118.175 34.8857C117.013 35.4578 116.298 36.5841 116.233 37.8069C116.002 42.1522 119.753 48.1673 123.178 55.4543L129.056 55.1486L128.511 52.2807" fill="#241D1E"/>
<path fill-rule="evenodd" clip-rule="evenodd" d="M123.687 55.7387C123.695 55.7575 123.705 55.7762 123.714 55.7949L119.889 59.0907L129.972 58.4426L129.38 55.4543L123.687 55.7387" fill="#B230FF"/>
<path fill-rule="evenodd" clip-rule="evenodd" d="M124.205 38.1824L114.416 58.7055C114.33 58.8852 114.464 59.0915 114.667 59.0915C114.771 59.0915 114.867 59.0337 114.913 58.942L125.389 38.4421L124.205 38.1824" fill="#FBFFFC"/>
<path fill-rule="evenodd" clip-rule="evenodd" d="M128.818 38.2477L122.651 58.7462C122.599 58.9183 122.73 59.0915 122.911 59.0915C123.029 59.0915 123.133 59.0166 123.17 58.9057L129.973 38.1824L128.818 38.2477" fill="#FBFFFC"/>
<path fill-rule="evenodd" clip-rule="evenodd" d="M132.723 38.3138L134.089 58.8591C134.098 58.9899 134.2 59.0915 134.322 59.0915C134.455 59.0915 134.56 58.9733 134.556 58.8315L133.797 38.1824L132.723 38.3138" fill="#FBFFFC"/>
<path fill-rule="evenodd" clip-rule="evenodd" d="M138.222 36.4077L143.208 58.8851C143.234 59.0054 143.34 59.0907 143.461 59.0907C143.624 59.0907 143.746 58.9422 143.717 58.7805L139.553 35.4543L138.222 36.4077" fill="#FBFFFC"/>
<path fill-rule="evenodd" clip-rule="evenodd" d="M129.972 38.1824L129.138 38.2655L129.055 38.8063C129.27 39.0871 129.545 39.2058 129.841 38.9518L129.972 38.1824" fill="#241D1E"/>
<path fill-rule="evenodd" clip-rule="evenodd" d="M140.772 35.4543L139.139 36.5753L139.278 37.1936C139.848 37.397 140.574 37.213 140.972 36.5753L140.772 35.4543" fill="#241D1E"/>
<path fill-rule="evenodd" clip-rule="evenodd" d="M133.639 38.7761L133.621 38.1824L132.723 38.3802L132.735 38.8997C133.011 39.1843 133.41 39.1595 133.639 38.7761" fill="#241D1E"/>
<path fill-rule="evenodd" clip-rule="evenodd" d="M126.306 37.5509L124.755 37.2725L124.473 37.7566C124.628 38.0907 125.499 38.2953 125.955 38.1138L126.306 37.5509" fill="#241D1E"/>
<path fill-rule="evenodd" clip-rule="evenodd" d="M122.825 36.4431C122.361 35.4557 122.746 34.5008 124.225 33.5878C124.565 33.3782 124.935 33.2191 125.317 33.0932C127.503 32.3715 130.199 30.6171 131.66 28.9898C133.469 26.9753 135.794 19.5914 138.204 17.9849C139.038 17.4693 140.1 17.1511 141.723 17.3168C142.645 17.5138 142.953 18.3079 142.742 19.6069L142.442 21.9899C142.253 23.4898 142.287 25.0061 142.512 26.5013C143.26 31.4744 141.574 34.9982 137.283 36.9732C134.883 37.9341 132.044 38.7224 124.615 37.7077C123.837 37.6016 123.15 37.1348 122.825 36.4431" fill="#FBFFFC"/>
<path fill-rule="evenodd" clip-rule="evenodd" d="M120.239 60.0001C120.051 60.0001 119.895 59.817 119.889 59.5844C119.882 59.3467 120.034 59.1474 120.227 59.1392C120.914 59.1102 121.588 59.0879 122.24 59.0663C125.304 58.9647 127.951 58.8771 130.462 58.1923C130.651 58.1406 130.838 58.2871 130.88 58.5192C130.922 58.7514 130.803 58.9813 130.614 59.033C128.037 59.7357 125.23 59.8287 122.259 59.9272C121.609 59.9486 120.935 59.971 120.251 59.9998C120.247 59.9999 120.243 60.0001 120.239 60.0001" fill="#241D1E"/>
<path fill-rule="evenodd" clip-rule="evenodd" d="M110.406 55.4545C110.365 55.4545 110.323 55.4468 110.283 55.4307L108.724 54.8065C108.58 54.7486 108.429 54.6959 108.262 54.6451C106.212 54.0244 104.654 53.2713 103.501 52.343C103.368 52.2361 103.352 52.0479 103.466 51.9227C103.579 51.7975 103.778 51.7826 103.911 51.8894C105 52.7655 106.486 53.4812 108.455 54.0774C108.641 54.134 108.81 54.193 108.971 54.2581L110.53 54.8818C110.691 54.9462 110.766 55.1213 110.698 55.2728C110.646 55.3863 110.53 55.4545 110.406 55.4545" fill="#241D1E"/>
<path fill-rule="evenodd" clip-rule="evenodd" d="M121.964 56.3634C121.91 56.3634 121.856 56.3363 121.812 56.2803C121.708 56.1512 121.693 55.9173 121.776 55.7582C121.872 55.5777 122.013 55.4673 122.163 55.4553C122.316 55.4441 122.462 55.5308 122.569 55.6952C122.663 55.8402 122.663 56.0754 122.568 56.2203C122.475 56.3652 122.322 56.3651 122.227 56.2201C122.214 56.1994 122.199 56.1954 122.188 56.1968C122.178 56.1977 122.163 56.2035 122.151 56.2262C122.103 56.3165 122.034 56.3634 121.964 56.3634" fill="#241D1E"/>
<path fill-rule="evenodd" clip-rule="evenodd" d="M121.047 57.2731C120.993 57.2731 120.94 57.246 120.895 57.1901C120.791 57.0609 120.776 56.827 120.86 56.6679C120.955 56.4875 121.096 56.3771 121.247 56.3651C121.399 56.3533 121.545 56.4406 121.652 56.6049C121.746 56.75 121.746 56.985 121.652 57.13C121.557 57.275 121.405 57.2749 121.311 57.1299C121.298 57.109 121.282 57.1051 121.271 57.1066C121.261 57.1074 121.246 57.1132 121.234 57.1359C121.186 57.2262 121.116 57.2731 121.047 57.2731" fill="#241D1E"/>
<path fill-rule="evenodd" clip-rule="evenodd" d="M107.633 51.8183C107.469 51.8183 107.324 51.7341 107.296 51.6158L107.245 51.387C107.24 51.3682 107.224 51.3575 107.212 51.3518C107.054 51.2795 107.009 51.1306 107.111 51.0191C107.214 50.9074 107.424 50.8757 107.582 50.9478C107.762 51.0297 107.883 51.1619 107.917 51.3106L107.969 51.5395C107.999 51.6706 107.872 51.7941 107.687 51.8152C107.669 51.8173 107.651 51.8183 107.633 51.8183" fill="#241D1E"/>
<path fill-rule="evenodd" clip-rule="evenodd" d="M105.764 51.8183C105.584 51.8183 105.424 51.7289 105.394 51.6036L105.337 51.361C105.334 51.3505 105.327 51.3412 105.318 51.3335C105.18 51.2282 105.194 51.067 105.349 50.9735C105.504 50.88 105.741 50.8896 105.88 50.9949C105.984 51.0751 106.052 51.1737 106.078 51.28L106.135 51.5227C106.168 51.6618 106.029 51.7926 105.824 51.815C105.805 51.8172 105.784 51.8183 105.764 51.8183" fill="#241D1E"/>
<path fill-rule="evenodd" clip-rule="evenodd" d="M130.742 5.3532C130.745 5.42723 130.67 5.47741 130.605 5.44404C130.536 5.40801 130.465 5.37198 130.425 5.32832C129.725 4.56419 129.854 3.32638 130.697 2.73527C130.701 2.73261 130.704 2.72995 130.709 2.72729C130.91 3.14376 130.929 3.60903 130.834 4.10501C130.823 4.16188 130.807 4.21764 130.793 4.27374C130.7 4.63273 130.729 4.98357 130.742 5.3532" fill="#000201"/>
<path fill-rule="evenodd" clip-rule="evenodd" d="M130.889 3.6066C130.453 4.84919 129.585 4.82162 128.94 3.74043C128.516 3.68566 127.937 2.65946 128.21 2.46224C128.365 2.34965 128.52 2.43322 128.624 2.52564C128.669 2.56543 128.749 2.53962 128.747 2.485L128.759 1.94666C128.756 1.83399 128.919 1.77541 129.015 1.85447L129.297 2.33147C129.347 2.37196 129.209 2.34675 129.194 2.29038C129.194 2.29038 128.964 1.89082 129.297 1.83277C129.413 1.81253 129.504 1.87196 129.574 1.95796C129.74 2.16305 129.935 2.35347 130.185 2.48691C130.543 2.6784 130.757 3.08231 130.889 3.6066" fill="#000201"/>
<path fill-rule="evenodd" clip-rule="evenodd" d="M129.38 4.62638L129.055 5.44801C129.463 5.483 129.733 5.37024 129.885 5.12707C129.956 5.01267 129.988 4.8835 129.964 4.7574C129.917 4.51321 129.704 4.49443 129.38 4.62638" fill="#FF887A"/>
<path fill-rule="evenodd" clip-rule="evenodd" d="M130.191 5.45426C130.117 5.45426 130.047 5.43181 130.007 5.39093C129.942 5.32814 129.972 5.24585 130.077 5.2071C130.388 5.08874 130.519 4.91506 130.414 4.75341L130.401 4.72643C130.357 4.65749 130.414 4.58027 130.523 4.55382C130.637 4.5279 130.764 4.5621 130.808 4.63104L130.825 4.65749C131.005 4.94205 130.799 5.24692 130.305 5.43395C130.27 5.44785 130.23 5.45426 130.191 5.45426" fill="#241D1E"/>
<path fill-rule="evenodd" clip-rule="evenodd" d="M124.21 29.0908H88.0699C87.4186 29.0908 86.8906 28.5607 86.8906 27.9067V27.5476C86.8906 26.8936 87.4186 26.3635 88.0699 26.3635H124.21C124.861 26.3635 125.389 26.8936 125.389 27.5476V27.9067C125.389 28.5607 124.861 29.0908 124.21 29.0908" fill="#FBFFFC"/>
<path fill-rule="evenodd" clip-rule="evenodd" d="M133.435 10.9754C131.939 9.73381 129.587 9.67727 127.977 10.8073C124.025 13.5813 123.014 17.2853 119.661 21.8545C117.356 22.5432 112.493 22.7457 112.493 22.7457C109.428 22.8186 104.611 23.7369 104.61 24.1069C104.609 24.2606 105.017 24.3732 105.359 24.2839C106.04 24.0916 105.937 24.0586 105.937 24.1391C105.937 24.2195 106.007 24.0101 105.208 24.287C104.826 24.3948 104.299 24.5874 104.306 24.6914C104.311 24.7674 104.326 24.8282 104.556 24.9013C104.705 24.9486 104.952 24.9481 105.102 24.9046C105.879 24.6802 106.542 24.6756 105.432 24.9432C105.251 24.9871 105.094 25.087 104.995 25.2255C104.851 25.4261 104.866 25.4996 104.926 25.5817C105.02 25.7104 105.41 25.5012 105.41 25.5012C105.61 25.3818 105.802 25.2884 106.025 25.3725C106.025 25.3725 106.613 25.4587 106.403 25.5119L105.821 25.5388C105.686 25.5727 105.36 25.882 105.423 26.0268C105.46 26.114 105.619 26.1081 105.78 26.0764C106.045 26.0239 106.321 26.0681 106.55 26.2075C106.644 26.2651 106.748 26.3086 106.857 26.3334C107.152 26.4009 107.452 26.4546 107.755 26.4944L110.643 26.8741C114.366 27.0722 118.247 27.6623 121.732 26.8741C124.684 26.1573 128.015 24.202 131.116 20.2456C133.484 16.8668 136.094 13.1823 133.435 10.9754" fill="#FF887A"/>
<path fill-rule="evenodd" clip-rule="evenodd" d="M67.6418 3.18186C67.6418 4.43712 66.6157 5.45464 65.3501 5.45464C64.0846 5.45464 63.0586 4.43712 63.0586 3.18186C63.0586 1.9267 64.0846 0.90918 65.3501 0.90918C66.6157 0.90918 67.6418 1.9267 67.6418 3.18186" fill="#241D1E"/>
<path fill-rule="evenodd" clip-rule="evenodd" d="M64.8919 0.909038C64.8919 1.41117 64.4816 1.81818 63.9753 1.81818C63.469 1.81818 63.0586 1.41117 63.0586 0.909038C63.0586 0.40701 63.469 0 63.9753 0C64.4816 0 64.8919 0.40701 64.8919 0.909038" fill="#241D1E"/>
<path fill-rule="evenodd" clip-rule="evenodd" d="M131.806 20.9089C131.378 21.7987 130.067 24.8519 127.45 26.3635L127.223 24.8655L131.806 20.9089" fill="#241D1E"/>
<path fill-rule="evenodd" clip-rule="evenodd" d="M134.34 10.9754C132.826 9.73381 130.447 9.67727 128.819 10.8073C125.069 13.4099 123.703 16.8876 120.966 21.0277C120.609 21.5693 120.023 21.9313 119.366 22.0252C116.739 22.4003 112.243 22.7477 111.64 22.847C112.278 23.807 112.407 24.6429 112.23 26.9309C115.703 27.1611 119.271 27.5966 122.502 26.874C125.488 26.1572 128.858 24.2019 131.994 20.2456C134.39 16.8667 137.029 13.1823 134.34 10.9754" fill="#008583"/>
<path fill-rule="evenodd" clip-rule="evenodd" d="M33.1472 45.4547L33.7261 40.8183L30.0596 39.0911C31.1961 40.4499 32.2041 42.7216 33.1472 45.4547" fill="#008583"/>
<path fill-rule="evenodd" clip-rule="evenodd" d="M33.7261 40.9224L30.0596 39.0911C30.3763 39.4927 30.3241 39.3687 30.6224 39.9104C31.5116 40.8684 32.75 41.8813 33.6209 41.8153L33.7261 40.9224" fill="#241D1E"/>
<path fill-rule="evenodd" clip-rule="evenodd" d="M33.5791 39.9998C35.2214 30.3981 22.6097 25.9362 20.3287 29.2879C18.0477 32.6394 27.3571 38.2814 33.5791 39.9998" fill="#008583"/>
<path fill-rule="evenodd" clip-rule="evenodd" d="M27.07 35.4543C25.3707 35.4543 23.1049 35.1416 21.8667 34.689C21.8177 34.6711 21.7968 34.626 21.82 34.5883C21.8433 34.5506 21.9019 34.5345 21.9509 34.5525C23.948 35.2825 28.2171 35.5656 28.9784 35.0189C29.0181 34.9903 29.0803 34.992 29.1172 35.0224C29.1542 35.053 29.1521 35.1008 29.1125 35.1292C28.7966 35.356 28.0222 35.4543 27.07 35.4543" fill="#000201"/>
<path fill-rule="evenodd" clip-rule="evenodd" d="M33.6273 39.9999C33.5907 39.9999 33.5558 39.9808 33.5388 39.9481C31.2016 35.4266 27.3185 32.1319 20.9483 29.2656C20.8994 29.2436 20.8788 29.1887 20.9023 29.1429C20.9259 29.0972 20.9847 29.0779 21.0334 29.0999C27.4464 31.9855 31.3578 35.3065 33.7157 39.868C33.7392 39.9137 33.7188 39.9686 33.67 39.9908C33.6561 39.997 33.6416 39.9999 33.6273 39.9999" fill="#000201"/>
<path fill-rule="evenodd" clip-rule="evenodd" d="M161.281 47.2729L160.221 44.6193L162.971 44.5457C162.349 45.128 161.797 46.1016 161.281 47.2729" fill="#B230FF"/>
<path fill-rule="evenodd" clip-rule="evenodd" d="M160.221 44.5457C160.221 44.5457 163.149 44.8084 162.963 45.0212C162.406 45.3976 161.156 45.4762 160.61 45.4502L160.221 44.5457" fill="#241D1E"/>
<path fill-rule="evenodd" clip-rule="evenodd" d="M160.221 44.5201C163.352 40.8784 169.817 43.6149 169.365 45.4515C168.911 47.2882 163.223 46.0259 160.221 44.5201" fill="#B230FF"/>
<path fill-rule="evenodd" clip-rule="evenodd" d="M169.285 45.4547C169.255 45.4547 169.225 45.444 169.204 45.4235C166.885 43.093 162.665 43.7858 160.357 44.4063C160.302 44.4208 160.244 44.3967 160.227 44.3525C160.208 44.3084 160.238 44.2607 160.292 44.2462C162.652 43.6123 166.968 42.9084 169.364 45.3174C169.4 45.3535 169.394 45.4066 169.35 45.4359C169.33 45.4485 169.307 45.4547 169.285 45.4547" fill="#000201"/>
<path fill-rule="evenodd" clip-rule="evenodd" d="M26.3063 33.6366C26.2651 33.6366 26.2287 33.6057 26.2217 33.562C25.942 31.8378 25.4701 30.8524 24.5931 30.161C24.5553 30.1312 24.5479 30.0751 24.5765 30.0357C24.605 29.9964 24.659 29.9885 24.6969 30.0185C25.6005 30.7308 26.1071 31.7817 26.3911 33.5324C26.399 33.581 26.3675 33.6272 26.3207 33.6354C26.3159 33.6362 26.311 33.6366 26.3063 33.6366" fill="#000201"/>
<path fill-rule="evenodd" clip-rule="evenodd" d="M160.107 47.2725C160.377 45.1706 160.173 42.9105 159.433 41.2129C158.586 39.2677 156.691 37.9174 154.669 37.4077C153.07 37.0047 152.32 37.5442 152.057 38.4717C151.59 40.3756 153.093 41.6543 154.93 42.4656C155.067 42.526 155.204 42.5852 155.337 42.6531C157.38 43.6944 158.81 45.4105 160.107 47.2725" fill="#B230FF"/>
</svg>
