<svg width="188" height="64" viewBox="0 0 188 64" fill="none" xmlns="http://www.w3.org/2000/svg">
<path fill-rule="evenodd" clip-rule="evenodd" d="M187.906 63.2558H0.0940517C0.0421352 63.2558 0 62.9231 0 62.5116C0 62.1001 0.0421352 61.7674 0.0940517 61.7674H187.906C187.958 61.7674 188 62.1001 188 62.5116C188 62.9231 187.958 63.2558 187.906 63.2558" fill="#000201"/>
<path fill-rule="evenodd" clip-rule="evenodd" d="M33.051 49.2056C29.6153 49.2056 26.7677 48.4731 26.2463 47.5152V56.6022C26.2463 60.1523 29.2929 63.0303 33.051 63.0303C36.8092 63.0303 39.8558 60.1523 39.8558 56.6022V47.5152C39.3343 48.4731 36.4867 49.2056 33.051 49.2056" fill="#B230FF"/>
<path fill-rule="evenodd" clip-rule="evenodd" d="M33.0511 44.6061C29.293 44.6061 26.2463 45.4745 26.2463 46.5455C26.2463 46.6497 26.2759 46.7518 26.3315 46.8514C26.8463 47.7771 29.6583 48.4849 33.0511 48.4849C36.4438 48.4849 39.2558 47.7771 39.7707 46.8514C39.8262 46.7518 39.8558 46.6497 39.8558 46.5455C39.8558 45.4745 36.8092 44.6061 33.0511 44.6061" fill="#241D1E"/>
<path fill-rule="evenodd" clip-rule="evenodd" d="M169.632 52.6617C165.951 52.6617 162.9 52.1124 162.341 51.3939V58.2091C162.341 60.8717 165.606 63.0303 169.632 63.0303C173.659 63.0303 176.922 60.8717 176.922 58.2091V51.3939C176.364 52.1124 173.314 52.6617 169.632 52.6617" fill="#FFFFC1"/>
<path fill-rule="evenodd" clip-rule="evenodd" d="M169.632 49.4545C165.604 49.4545 162.341 50.1056 162.341 50.909C162.341 50.9871 162.372 51.0638 162.431 51.1386C162.983 51.8328 165.996 52.3636 169.632 52.3636C173.267 52.3636 176.279 51.8328 176.831 51.1386C176.891 51.0638 176.922 50.9871 176.922 50.909C176.922 50.1056 173.658 49.4545 169.632 49.4545" fill="#241D1E"/>
<path fill-rule="evenodd" clip-rule="evenodd" d="M95.5805 32.0734C93.5577 40.6676 88.3329 63.0303 88.4636 63.0303C88.5481 63.0303 89.4568 63.0341 89.4948 62.8878L98.1822 32L95.5805 32.0734" fill="#FFFFC1"/>
<path fill-rule="evenodd" clip-rule="evenodd" d="M99.1551 29.5401L96.78 29.0909C96.78 29.0909 96.7009 29.3726 96.2388 31.7301C96.7279 32.1227 97.5218 32.0792 98.5848 31.6506L99.1551 29.5401" fill="#241D1E"/>
<path fill-rule="evenodd" clip-rule="evenodd" d="M60.3248 22.278C60.3322 22.3195 60.3398 22.3606 60.3475 22.4014C60.817 24.9047 60.9763 27.458 60.8118 30.0008C60.6497 32.5085 61.1705 34.8511 62.2201 36.8808C63.6557 39.657 66.1385 41.7244 69.0738 42.715C73.1307 44.0842 76.3802 43.6483 79.7218 43.1782C81.336 42.9512 82.8057 42.0733 83.7307 40.7141C84.7671 39.1913 84.8624 37.5039 83.9318 35.6371C83.2464 34.2621 82.1593 33.135 80.8423 32.3651C78.29 30.8733 72.6297 27.4024 70.0956 24.5605C68.083 22.3035 66.1988 20.155 65.8208 19.7112C65.2878 19.0852 64.564 18.6413 63.7451 18.4831C63.0784 18.3541 62.4021 18.4146 61.7048 18.8915C60.6206 19.6333 60.0915 20.974 60.3248 22.278" fill="#241D1E"/>
<path fill-rule="evenodd" clip-rule="evenodd" d="M67.0359 39.7576L62.2146 63.0303H62.7296L69.9914 40.7306L67.0359 39.7576" fill="#241D1E"/>
<path fill-rule="evenodd" clip-rule="evenodd" d="M82.7257 39.7576L87.4892 63.0303H86.9641L79.7124 40.7315L82.7257 39.7576" fill="#241D1E"/>
<path fill-rule="evenodd" clip-rule="evenodd" d="M75.0166 27.1515L77.2705 29.4834C77.351 29.5667 77.4546 29.6237 77.5677 29.6475C82.3073 30.6492 86.6797 32.2917 88.9792 33.4996C90.6145 34.3586 91.5688 36.1477 91.3453 37.9883C91.1915 39.2548 90.7684 40.6462 90.242 42.0856C89.8197 43.2408 89.3488 44.3779 88.8344 45.4951C86.7745 49.9691 85.008 54.7614 83.9611 60.334L87.9527 62.6258C88.0901 62.7048 88.0416 62.9149 87.8835 62.925C85.4428 63.0813 82.8876 63.059 80.2375 62.8883C80.1077 62.8883 80.0022 62.7846 79.9983 62.6545C79.9324 60.467 80.218 57.6214 80.6423 54.5159C81.744 47.772 82.9071 41.2718 84.8792 37.9837L74.8518 34.6488L75.0166 27.1515" fill="#FF887A"/>
<path fill-rule="evenodd" clip-rule="evenodd" d="M82.6287 62.966C84.5888 63.0637 86.4897 63.0527 88.3214 62.915C88.4691 62.9038 88.5144 62.6733 88.386 62.5866L84.7287 60.1212C83.826 60.7677 83.3443 61.6089 82.6287 62.966" fill="#241D1E"/>
<path fill-rule="evenodd" clip-rule="evenodd" d="M79.752 60.1212C79.7137 61.0202 79.7014 61.8656 79.7229 62.6423C79.7274 62.8039 79.8472 62.9326 79.9946 62.9326C80.5524 62.9719 81.1062 63.004 81.6566 63.0303C80.9623 61.3216 80.8939 60.951 79.752 60.1212" fill="#241D1E"/>
<path fill-rule="evenodd" clip-rule="evenodd" d="M78.7572 30.9424C84.6546 32.0338 79.7391 22.6208 79.6878 21.3333C78.5379 21.7457 78.7572 30.9424 78.7572 30.9424" fill="#008583"/>
<path fill-rule="evenodd" clip-rule="evenodd" d="M74.0675 12.7855C76.7861 13.4004 78.3512 17.7307 80.1281 21.8043L82.5242 15.3558L82.5955 15.1129C82.8283 14.3178 83.4403 13.0739 83.6752 13.2995C83.9102 13.5249 83.5108 14.0029 83.6988 14.0931C83.8868 14.1833 85.2257 12.2059 85.2492 12.6794C85.2726 13.1529 84.8733 13.6196 84.8498 13.8676C84.8242 14.138 85.5507 12.4601 85.8247 12.747C86.0831 13.0176 85.4842 13.8676 85.4371 14.1833C85.395 14.4657 85.9099 13.014 86.0949 13.2093C86.3297 13.4573 86.0008 14.3636 86.0479 14.4989C86.0949 14.6343 86.1771 13.8406 86.459 14.0661C86.6784 14.2416 86.2197 15.1034 86.0009 16.1675C85.2093 21.027 84.2736 25.6346 82.1711 28.2026C81.5058 29.0152 80.3611 29.3154 79.3691 28.914C77.0773 27.9865 75.0783 24.4429 73.8796 21.3487L74.0675 12.7855" fill="#FF887A"/>
<path fill-rule="evenodd" clip-rule="evenodd" d="M121.524 39.4917C121.273 44.3182 125.364 51.0044 129.086 59.106L124.803 63.0303L136.094 62.2586L134.84 55.5239C133.495 49.6781 132.096 44.3559 130.557 40.3838C129.973 38.8786 128.923 37.5689 127.522 36.6753C126.272 35.878 124.986 35.5743 123.63 36.256C122.369 36.8896 121.594 38.1373 121.524 39.4917" fill="#FF887A"/>
<path fill-rule="evenodd" clip-rule="evenodd" d="M79.766 20.5766C79.7535 20.5056 79.7411 20.4346 79.7287 20.3636L79.658 21.3333L79.766 20.5766" fill="#FF887A"/>
<path fill-rule="evenodd" clip-rule="evenodd" d="M79.7124 21.0152C77.8763 16.8199 76.2501 12.1738 73.2383 11.6364L72.9077 20.2819C74.0563 23.2293 76.854 28.8707 78.8944 30.0606C80.841 27.9225 78.2633 23.5236 79.7124 21.0152" fill="#FBFFFC"/>
<path fill-rule="evenodd" clip-rule="evenodd" d="M80.6877 52.3636C83.9138 45.3683 89.6417 39.6077 88.2459 36.2735C88.0231 35.7416 87.1992 35.7499 86.9781 36.2824C85.4207 40.0335 80.5385 52.3048 80.6877 52.3636" fill="#241D1E"/>
<path fill-rule="evenodd" clip-rule="evenodd" d="M77.7704 19.3637C77.8229 19.5253 78.3383 19.0136 78.7398 18.4242C78.2903 18.6802 77.7322 19.2463 77.7704 19.3637" fill="#FF887A"/>
<path fill-rule="evenodd" clip-rule="evenodd" d="M78.7398 18.3498C78.4391 18.3897 78.1075 18.4419 77.7686 18.499C78.1745 18.4507 78.5258 18.4013 78.7398 18.3498" fill="#FF887A"/>
<path fill-rule="evenodd" clip-rule="evenodd" d="M81.656 32.9697C81.9845 33.2916 82.3083 33.6146 82.6272 33.9394C82.3083 33.6146 81.9845 33.2916 81.656 32.9697" fill="#FF887A"/>
<path fill-rule="evenodd" clip-rule="evenodd" d="M79.7124 32C80.04 32.3216 80.3637 32.6447 80.6836 32.9697C80.3637 32.6447 80.04 32.3216 79.7124 32" fill="#FF887A"/>
<path fill-rule="evenodd" clip-rule="evenodd" d="M81.656 32.9697C81.984 33.2918 82.308 33.6149 82.6272 33.9394C82.308 33.6149 81.984 33.2918 81.656 32.9697" fill="#FF887A"/>
<path fill-rule="evenodd" clip-rule="evenodd" d="M83.6016 32.9697C84.2911 33.2862 84.9416 33.6091 85.5458 33.9394C84.9416 33.6091 84.2911 33.2862 83.6016 32.9697" fill="#FF887A"/>
<path fill-rule="evenodd" clip-rule="evenodd" d="M78.7405 32C79.0691 32.3212 79.393 32.6443 79.7117 32.9697C79.393 32.6443 79.0691 32.3212 78.7405 32" fill="#FF887A"/>
<path fill-rule="evenodd" clip-rule="evenodd" d="M75.7668 27.1515V27.1515L75.8813 28.1212L75.7668 27.1515" fill="#FF887A"/>
<path fill-rule="evenodd" clip-rule="evenodd" d="M80.6843 32C81.0121 32.3215 81.3358 32.6449 81.6555 32.9697C81.3358 32.6449 81.0121 32.3215 80.6843 32" fill="#FF887A"/>
<path fill-rule="evenodd" clip-rule="evenodd" d="M87.4894 35.8788C87.2907 35.7112 87.0678 35.568 86.8239 35.455C86.4243 35.27 85.9971 35.0881 85.5452 34.9091C85.9971 35.0881 86.4243 35.27 86.8239 35.455C87.0678 35.568 87.2907 35.7112 87.4894 35.8788" fill="#FF887A"/>
<path fill-rule="evenodd" clip-rule="evenodd" d="M87.4883 39.7576C87.1757 40.0776 86.8517 40.4008 86.5171 40.7273C86.8517 40.4008 87.1757 40.0776 87.4883 39.7576" fill="#FF887A"/>
<path fill-rule="evenodd" clip-rule="evenodd" d="M87.4883 41.6969C87.1707 42.0178 86.8468 42.3412 86.5171 42.6666C86.8468 42.3412 87.1707 42.0178 87.4883 41.6969" fill="#FF887A"/>
<path fill-rule="evenodd" clip-rule="evenodd" d="M86.5164 42.6667C86.198 42.9878 85.8742 43.3114 85.5452 43.6364C85.8742 43.3114 86.198 42.9878 86.5164 42.6667" fill="#FF887A"/>
<path fill-rule="evenodd" clip-rule="evenodd" d="M87.5631 39.7576C87.516 40.0767 87.4663 40.4 87.4143 40.7273C87.4663 40.4 87.516 40.0767 87.5631 39.7576" fill="#FF887A"/>
<path fill-rule="evenodd" clip-rule="evenodd" d="M88.4583 36.8485C88.4672 37.169 88.4672 37.4927 88.4578 37.8182C88.4672 37.4927 88.4672 37.169 88.4583 36.8485" fill="#FF887A"/>
<path fill-rule="evenodd" clip-rule="evenodd" d="M87.4883 39.7576C87.1841 40.0753 86.8596 40.3986 86.5171 40.7273C86.8596 40.3986 87.1841 40.0753 87.4883 39.7576" fill="#FF887A"/>
<path fill-rule="evenodd" clip-rule="evenodd" d="M87.4893 34.9091C87.8327 35.2226 88.1565 35.5461 88.4605 35.8788C88.1565 35.5461 87.8327 35.2226 87.4893 34.9091" fill="#FF887A"/>
<path fill-rule="evenodd" clip-rule="evenodd" d="M88.3931 34.9091C88.4419 35.2244 88.4875 35.5479 88.5298 35.8788C88.4875 35.5479 88.4419 35.2244 88.3931 34.9091" fill="#FF887A"/>
<path fill-rule="evenodd" clip-rule="evenodd" d="M88.4242 35.8788C88.4526 36.1973 88.4773 36.5206 88.4985 36.8485C88.4773 36.5206 88.4526 36.1973 88.4242 35.8788" fill="#FF887A"/>
<path fill-rule="evenodd" clip-rule="evenodd" d="M68.0488 27.1491L68.0463 27.1542L68.0488 27.1491" fill="#FF887A"/>
<path fill-rule="evenodd" clip-rule="evenodd" d="M88.7627 34.0708C86.4985 32.9387 82.193 31.3993 77.5261 30.4606C77.4147 30.4382 77.3127 30.3848 77.2334 30.3067L75.0141 28.1212L74.8518 35.1479L83.2875 37.8182C85.315 36.1464 88.0257 35.6335 90.4054 35.4941C90.0015 34.9058 89.4422 34.4105 88.7627 34.0708" fill="#B230FF"/>
<path fill-rule="evenodd" clip-rule="evenodd" d="M71.0547 4.92778L71.0763 7.82069L70.6907 7.8899L70.9779 8.89583C71.4143 10.4237 72.418 11.7344 73.7925 12.5574C73.8025 12.5634 73.8123 12.5693 73.8223 12.5752L74.243 16.1066C74.4051 17.4625 74.2011 18.4357 73.7522 19.1531L75.3181 28.5929L75.7387 31.8473C80.0429 32.8716 83.9291 33.9422 86.6255 35.1445C87.9962 35.7556 88.7353 37.2439 88.3675 38.684C87.9219 40.4285 86.7197 42.6703 85.2739 45.0723C82.7887 49.4992 80.814 54.6875 79.1742 60.3746L82.5898 62.6859C82.7274 62.779 82.669 62.9918 82.5026 63.0022C81.0393 63.0935 76.565 62.9628 74.6593 62.6075C74.4398 62.5664 74.2949 62.3592 74.3331 62.1419L75.1077 57.7435C76.7605 48.4703 79.0873 42.3231 82.0487 39.1176C79.1937 40.1514 75.5146 40.0629 71.3205 39.2729C69.0915 38.8531 67.3723 37.0539 67.1225 34.8263C67.0434 34.1198 67.0605 33.3129 67.1963 32.3825C67.408 30.9317 67.869 29.5273 68.5327 28.2163L69.5101 26.2855C69.64 26.0292 69.691 25.741 69.6569 25.4563L68.9379 19.4532L68.4472 12.7368C69.04 11.881 69.3479 10.8641 69.3282 9.82751L69.2884 7.75138C69.0066 5.7948 69.3336 3.54504 70.2934 3.92013C70.7735 4.10778 71.0439 4.4178 71.0547 4.92778" fill="#FF887A"/>
<path fill-rule="evenodd" clip-rule="evenodd" d="M87.0765 35.5784C86.8697 35.413 86.6376 35.2716 86.3836 35.1601C85.9676 34.9775 85.5228 34.7979 85.0523 34.6213C84.3934 34.3738 83.684 34.1319 82.9322 33.8947C82.8248 33.8609 82.7166 33.827 82.6074 33.7933C82.3892 33.7259 82.1675 33.6589 81.9427 33.5921C81.7179 33.5255 81.4898 33.4592 81.2589 33.3931C81.0278 33.3271 80.7938 33.2614 80.5569 33.196C80.3201 33.1306 80.0805 33.0656 79.8381 33.0008C79.4747 32.9036 79.1053 32.8071 78.7306 32.7112C77.7313 32.4553 76.6944 32.2035 75.6318 31.9545L75.2163 28.7904L75.1036 28.1212C73.0377 28.6695 70.8179 28.6845 68.5172 28.4193L68.5147 28.4242C67.8592 29.6989 67.4039 31.0644 67.1948 32.4749C67.0607 33.3795 67.0438 34.164 67.122 34.851C67.3686 37.0168 68.95 38.7541 71.2681 39.1743C75.399 39.9232 79.0181 40.0275 81.8338 39.0336C83.4414 37.5472 85.2053 36.4687 87.4893 35.979C87.3658 35.8343 87.2281 35.6998 87.0765 35.5784" fill="#B230FF"/>
<path fill-rule="evenodd" clip-rule="evenodd" d="M74.8518 27.627L73.6488 18.6204C74.1008 17.8799 74.2828 16.7804 74.1194 15.3812L73.4605 11.8088C73.4504 11.8027 73.4405 11.7966 73.4304 11.7904C72.5723 11.2638 71.8581 10.5438 71.3341 9.69698C70.5993 9.92215 69.8106 10.0026 68.8923 9.73352C68.7894 10.5344 68.5016 11.3032 68.0471 11.9755L68.5414 18.9061L69.2654 25.1005C69.2998 25.3943 69.2485 25.6917 69.1176 25.9563L68.1358 27.9434C70.4818 28.2249 72.7453 28.2089 74.8518 27.627" fill="#FBFFFC"/>
<path fill-rule="evenodd" clip-rule="evenodd" d="M71.4408 32C69.1567 30.6194 70.1399 27.141 70.6031 24.2424C72.7742 27.2385 74.0703 30.0603 71.4408 32" fill="#008583"/>
<path fill-rule="evenodd" clip-rule="evenodd" d="M68.8681 11.6364C63.6279 13.9249 64.7793 22.0811 67.0116 27.3399C68.3014 29.612 69.8026 30.2637 71.3979 30.0086C72.8701 29.7733 74.1266 28.7756 74.7866 27.392C76.1955 24.4385 77.5315 22.0217 78.5438 20.1754C78.6331 20.0126 78.7046 19.8411 78.7813 19.6716C78.8465 19.5273 78.9703 19.4075 79.1368 19.3056C79.1368 19.3056 79.5949 19.1108 79.4892 18.8917C79.3835 18.6726 78.4905 19.3056 78.5728 19.0864C78.6087 18.9906 78.728 18.9064 78.8506 18.8419C78.9946 18.7663 79.0714 18.6622 79.2308 18.6361C79.476 18.5957 79.7008 18.4778 79.7125 18.3073C79.7413 17.8881 78.2146 18.5261 78.2908 18.6239C78.3983 18.7617 79.6889 18.1126 79.5832 17.7717C79.4635 17.3859 78.0558 18.3804 78.0558 18.1613C78.0558 17.9421 79.0662 17.9057 79.1838 17.6621C79.3012 17.4186 77.9745 17.4132 77.3978 17.65C75.8385 18.1965 74.5583 19.1926 73.5911 20.6933L70.56 24.6618L69.338 17.8447L68.8681 11.6364" fill="#FF887A"/>
<path fill-rule="evenodd" clip-rule="evenodd" d="M69.487 17.3696L68.0992 11.6364C62.9954 13.7016 63.6409 20.6567 65.624 25.7561C65.8871 26.4325 66.0913 27.1291 66.2169 27.841C67.207 33.4513 71.0544 31.78 70.9615 31.7265C69.0647 30.634 70.0656 24.1429 70.0656 24.1429L69.4911 17.4173L69.487 17.3696" fill="#FBFFFC"/>
<path fill-rule="evenodd" clip-rule="evenodd" d="M134.916 3.74579L133.714 6.67757C133.688 6.74242 133.725 6.81526 133.792 6.83216L134.503 7.01104L135.551 9.75328L133.944 21.7066L134.713 31.1286C130.202 30.9493 125.93 30.8625 123.038 31.3118C120.902 31.6434 119.064 33.0246 118.163 35.0019C117.185 37.1476 116.812 39.7541 116.278 42.2381L113.554 55.1055L108.876 56.3711C111.247 58.5404 114.4 59.0446 116.627 60.1212C120.062 52.9576 123.687 45.7434 124.378 39.3085C131.259 39.9317 137.598 40.3499 141.276 38.9333C144.088 37.8688 145.522 34.8497 145.816 30.2145C145.419 22.3258 144.082 15.2066 140.011 10.3249C139.114 9.248 138.305 8.09853 137.625 6.87068C137.341 6.35946 137.26 5.75727 137.407 5.19083C137.721 3.97589 137.522 3.59509 136.831 3.12383C136.153 2.66158 135.22 2.98061 134.916 3.74579" fill="#FF887A"/>
<path fill-rule="evenodd" clip-rule="evenodd" d="M145.37 31.9752C146.994 23.4963 143.989 13.53 139.401 8.60484C139.161 8.34777 138.798 7.75755 138.798 7.75755C137.862 8.09957 136.831 8.50538 135.78 8.75963C135.852 8.95261 135.871 9.16201 135.838 9.36587L134.15 19.6364L135.087 30.0799C134.602 30.0601 141.062 32.2558 145.37 31.9752" fill="#008583"/>
<path fill-rule="evenodd" clip-rule="evenodd" d="M138.038 26.2837C138.038 26.6223 139.196 27.1849 139.983 27.15C139.173 26.4685 138.038 25.9551 138.038 26.2837" fill="#008583"/>
<path fill-rule="evenodd" clip-rule="evenodd" d="M139.109 26.2736C139.109 26.2736 138.077 26.9744 138.039 27.0981C138.013 27.1805 139.19 27.1894 139.983 26.9662C139.814 26.3192 139.445 26.0156 139.109 26.2736" fill="#008583"/>
<path fill-rule="evenodd" clip-rule="evenodd" d="M83.3806 14.5455C83.3706 14.5455 83.3604 14.545 83.3502 14.5441C83.2627 14.5364 83.2052 14.4973 83.222 14.4568C83.4214 13.9736 83.053 13.8067 82.7097 13.7153C82.6323 13.6947 82.6057 13.6491 82.6502 13.6134C82.6946 13.5774 82.7933 13.5652 82.8704 13.5857C83.5006 13.7536 83.7193 14.0476 83.5388 14.4848C83.5241 14.5206 83.4565 14.5455 83.3806 14.5455" fill="#241D1E"/>
<path fill-rule="evenodd" clip-rule="evenodd" d="M46.1349 55.0223C40.4902 55.0223 35.8154 54.3374 34.9958 53.4437C35.8721 58.8804 40.5396 63.0303 46.1668 63.0303C51.8319 63.0303 56.5235 58.824 57.3542 53.3333C56.8335 54.2803 52.0097 55.0223 46.1349 55.0223" fill="#FBFFFC"/>
<path fill-rule="evenodd" clip-rule="evenodd" d="M53.1519 51.7128C51.2297 51.5133 48.7905 51.3939 46.1356 51.3939C43.4807 51.3939 41.0415 51.5133 39.1192 51.7128C37.2185 51.91 35.8235 52.1856 35.2265 52.5018C35.0601 52.59 34.9729 52.7471 35.0011 52.9043C35.0013 52.9055 35.0015 52.9068 35.0018 52.9081C35.023 53.0262 35.1057 53.1318 35.231 53.1976C36.4384 53.8323 40.8625 54.303 46.1356 54.303C51.9915 54.303 56.7998 53.7225 57.3187 52.9815C57.3314 52.9157 57.3433 52.8496 57.3542 52.7833C57.2068 52.3505 55.5985 51.9667 53.1519 51.7128" fill="#241D1E"/>
<path fill-rule="evenodd" clip-rule="evenodd" d="M43.1786 52.0574C44.2474 52.8504 45.3638 53.584 46.4493 54.303C49.9543 50.1124 45.1092 40.6312 39.3421 39.7795C38.024 39.5848 36.8688 40.7099 36.9436 42.1146C37.0364 43.8591 37.4854 45.359 38.1797 46.6778L43.1786 52.0574" fill="#FFFFC1"/>
<path fill-rule="evenodd" clip-rule="evenodd" d="M47.5287 54.303C47.4766 54.303 47.4317 54.2627 47.4252 54.2077C46.7713 48.5756 43.763 44.0467 37.9577 39.9552C37.9102 39.9217 37.8978 39.8543 37.9302 39.8049C37.9625 39.7557 38.0273 39.7426 38.0751 39.7763C43.9338 43.9057 46.9707 48.4832 47.6324 54.182C47.6393 54.2413 47.5985 54.2951 47.5412 54.3024C47.537 54.3028 47.5329 54.303 47.5287 54.303" fill="#000201"/>
<path fill-rule="evenodd" clip-rule="evenodd" d="M45.0847 47.5151C45.0691 47.5151 45.0535 47.513 45.0382 47.5087C44.9686 47.4889 44.9329 47.4291 44.9585 47.3751C45.8345 45.5326 45.467 43.8314 43.7673 41.8588C43.726 41.8109 43.7427 41.7463 43.8045 41.7145C43.8664 41.6825 43.9498 41.6955 43.991 41.7433C45.7432 43.7767 46.1195 45.5359 45.2109 47.447C45.191 47.4891 45.1395 47.5151 45.0847 47.5151" fill="#000201"/>
<path fill-rule="evenodd" clip-rule="evenodd" d="M49.6673 54.303C52.7115 52.3701 53.6879 50.5358 53.4249 48.802C53.4079 48.6901 53.3822 48.5783 53.3528 48.4681C52.9526 46.9707 52.3159 46.4665 51.5381 46.5553C50.7967 46.6399 50.2135 47.2307 49.9454 48.078C49.4751 49.5645 49.5462 51.8164 49.6673 54.303" fill="#FFFFC1"/>
<path fill-rule="evenodd" clip-rule="evenodd" d="M44.6294 54.303C40.0606 51.8441 38.5741 49.5432 38.9358 47.3879C38.9591 47.249 38.9954 47.1101 39.0373 46.9733C39.6076 45.115 40.5472 44.4976 41.7072 44.6213C42.8132 44.7392 43.6924 45.4849 44.1064 46.5447C44.8331 48.4042 44.7664 51.208 44.6294 54.303" fill="#008583"/>
<path fill-rule="evenodd" clip-rule="evenodd" d="M169.647 50.4242C166.675 45.7668 166.638 42.7162 168.328 40.6809C168.437 40.5498 168.558 40.4247 168.684 40.3045C170.395 38.6708 171.701 38.4799 172.766 39.1503C173.78 39.7893 174.184 40.9644 173.934 42.2428C173.499 44.4855 171.698 47.3224 169.647 50.4242" fill="#241D1E"/>
<path fill-rule="evenodd" clip-rule="evenodd" d="M49.6765 54.303C49.6514 54.303 49.6262 54.2931 49.607 54.2734C49.5679 54.2336 49.5675 54.1684 49.6058 54.1279C50.961 52.6996 51.841 50.2485 52.2962 46.635C52.3033 46.5787 52.3525 46.5387 52.4074 46.5464C52.4616 46.5537 52.5 46.6054 52.4928 46.6617C52.0318 50.3214 51.1338 52.8108 49.7472 54.2723C49.7278 54.2927 49.7022 54.303 49.6765 54.303" fill="#000201"/>
<path fill-rule="evenodd" clip-rule="evenodd" d="M69.9902 6.78787C69.4655 6.6681 69.1312 6.45636 69.0292 6.1325C69.0055 6.05711 69.0221 5.97573 69.0916 5.91348C69.1695 5.84333 69.2719 5.81718 69.3891 5.8182C69.7101 5.82139 69.9591 6.00481 69.9675 6.214L69.9902 6.78787" fill="#FF887A"/>
<path fill-rule="evenodd" clip-rule="evenodd" d="M70.8541 7.25299L70.4533 7.22474C70.319 7.21515 70.2007 7.12247 70.1473 6.98491L70.0833 6.82038C70.062 6.76528 69.988 6.78484 69.9911 6.84467C69.9913 6.84863 69.9915 6.85272 69.9917 6.85656C70.0131 7.23739 70.2557 7.55776 70.5873 7.6516L70.9622 7.75758L70.8541 7.25299" fill="#241D1E"/>
<path fill-rule="evenodd" clip-rule="evenodd" d="M69.7052 5.81815C69.6733 5.81815 69.6414 5.81434 69.6095 5.80586C69.2831 5.71893 69.1407 5.56924 69.0781 5.45899C68.9528 5.23595 69.0604 5.02944 69.0963 4.97178C69.1624 4.86534 69.331 4.8187 69.4745 4.86831C69.6175 4.9175 69.679 5.04344 69.6135 5.14945C69.597 5.17616 69.5736 5.24104 69.6038 5.29532C69.6295 5.34111 69.6955 5.37843 69.8009 5.40641C69.9496 5.44585 70.0265 5.56712 69.9735 5.6778C69.9319 5.7643 69.822 5.81815 69.7052 5.81815" fill="#241D1E"/>
<path fill-rule="evenodd" clip-rule="evenodd" d="M77.7686 62.8596C79.8847 63.0225 82.3889 63.0686 83.4302 62.9988C83.6036 62.9872 83.6646 62.7491 83.5212 62.6449L80.0482 60.1212C79.0877 60.6145 78.2904 61.449 77.7686 62.8596" fill="#241D1E"/>
<path fill-rule="evenodd" clip-rule="evenodd" d="M74.325 60.1212L73.8867 62.3008C73.8425 62.5213 74.0103 62.7314 74.2644 62.7731C74.9085 62.8782 75.806 62.9639 76.7959 63.0303C76.5566 61.4874 75.5013 60.7448 74.325 60.1212" fill="#241D1E"/>
<path fill-rule="evenodd" clip-rule="evenodd" d="M135.123 6.82482L135.949 6.88221C136.209 6.90016 136.455 6.75416 136.583 6.50666C136.583 6.50666 136.964 5.72598 137.049 5.82723C137.136 5.92836 136.871 6.5863 136.871 6.5863C136.553 7.17193 136.21 7.57478 135.655 7.70005L135.448 7.75757L135.123 6.82482" fill="#241D1E"/>
<path fill-rule="evenodd" clip-rule="evenodd" d="M113.394 54.303L108.876 56.032C111.415 58.3975 114.792 58.9472 117.177 60.1212C117.649 59.1185 118.125 58.1149 118.597 57.1123L113.896 54.6035L113.394 54.303" fill="#B230FF"/>
<path fill-rule="evenodd" clip-rule="evenodd" d="M135.17 31.1308C131.261 30.9961 126.141 30.94 123.595 31.3359C121.478 31.6653 119.654 33.0378 118.76 35.0029C117.792 37.134 117.422 39.7226 116.892 42.1894L113.736 54.6529L118.552 57.2121C121.518 51.0104 124.325 44.8509 124.923 39.2794C131.746 39.8984 138.03 40.3138 141.677 38.9067C143.847 38.0838 145.19 36.0845 145.815 33.0681C141.585 32.714 139.508 32.1087 135.17 31.1308" fill="#241D1E"/>
<path fill-rule="evenodd" clip-rule="evenodd" d="M135.516 55.7664C134.201 50.137 132.833 45.0118 131.329 41.1867C130.758 39.7373 129.73 38.4761 128.361 37.6155C127.139 36.8478 125.881 36.5553 124.556 37.2117C123.322 37.8219 122.564 39.0233 122.496 40.3276C122.251 44.9627 126.228 51.3787 129.861 59.1515L136.095 58.8254L135.516 55.7664" fill="#241D1E"/>
<path fill-rule="evenodd" clip-rule="evenodd" d="M130.4 59.4549C130.409 59.4748 130.42 59.4948 130.429 59.5148L126.373 63.0303L137.066 62.339L136.438 59.1515L130.4 59.4549" fill="#B230FF"/>
<path fill-rule="evenodd" clip-rule="evenodd" d="M130.949 40.7273L120.568 62.6186C120.477 62.8103 120.619 63.0303 120.834 63.0303C120.945 63.0303 121.046 62.9686 121.095 62.8709L132.205 41.0043L130.949 40.7273" fill="#FBFFFC"/>
<path fill-rule="evenodd" clip-rule="evenodd" d="M135.842 40.7969L129.302 62.662C129.247 62.8456 129.386 63.0303 129.577 63.0303C129.703 63.0303 129.813 62.9504 129.852 62.8322L137.067 40.7273L135.842 40.7969" fill="#FBFFFC"/>
<path fill-rule="evenodd" clip-rule="evenodd" d="M139.983 40.8675L141.432 62.7824C141.441 62.922 141.549 63.0303 141.679 63.0303C141.82 63.0303 141.932 62.9042 141.927 62.753L141.122 40.7273L139.983 40.8675" fill="#FBFFFC"/>
<path fill-rule="evenodd" clip-rule="evenodd" d="M145.816 38.8351L151.103 62.811C151.132 62.9393 151.244 63.0303 151.372 63.0303C151.545 63.0303 151.674 62.8719 151.644 62.6994L147.227 37.8182L145.816 38.8351" fill="#FBFFFC"/>
<path fill-rule="evenodd" clip-rule="evenodd" d="M137.066 40.7273L136.183 40.816L136.094 41.3928C136.322 41.6923 136.614 41.8189 136.927 41.548L137.066 40.7273" fill="#241D1E"/>
<path fill-rule="evenodd" clip-rule="evenodd" d="M148.52 37.8182L146.788 39.0138L146.935 39.6734C147.54 39.8904 148.309 39.694 148.732 39.0138L148.52 37.8182" fill="#241D1E"/>
<path fill-rule="evenodd" clip-rule="evenodd" d="M140.954 41.3606L140.935 40.7273L139.983 40.9383L139.996 41.4924C140.289 41.796 140.711 41.7695 140.954 41.3606" fill="#241D1E"/>
<path fill-rule="evenodd" clip-rule="evenodd" d="M133.178 40.0546L131.533 39.7576L131.234 40.274C131.398 40.6304 132.322 40.8485 132.805 40.6549L133.178 40.0546" fill="#241D1E"/>
<path fill-rule="evenodd" clip-rule="evenodd" d="M129.486 38.8726C128.995 37.8194 129.402 36.8008 130.971 35.8269C131.332 35.6034 131.724 35.4338 132.129 35.2994C134.448 34.5296 137.307 32.6583 138.856 30.9224C140.774 28.7737 143.24 20.8975 145.796 19.1839C146.68 18.6339 147.806 18.2945 149.528 18.4713C150.506 18.6814 150.833 19.5285 150.608 20.914L150.29 23.4559C150.09 25.0558 150.126 26.6731 150.364 28.268C151.158 33.5726 149.369 37.3315 144.82 39.438C142.274 40.4631 139.263 41.3039 131.385 40.2215C130.56 40.1083 129.831 39.6105 129.486 38.8726" fill="#FBFFFC"/>
<path fill-rule="evenodd" clip-rule="evenodd" d="M126.744 64C126.544 64 126.379 63.8047 126.373 63.5566C126.366 63.3031 126.526 63.0905 126.731 63.0817C127.46 63.0509 128.174 63.027 128.866 63.004C132.115 62.8956 134.922 62.8022 137.586 62.0717C137.786 62.0165 137.984 62.1728 138.029 62.4205C138.074 62.6681 137.947 62.9133 137.746 62.9684C135.014 63.718 132.037 63.8172 128.886 63.9223C128.196 63.9451 127.482 63.969 126.757 63.9997C126.753 63.9999 126.748 64 126.744 64" fill="#241D1E"/>
<path fill-rule="evenodd" clip-rule="evenodd" d="M116.317 59.1515C116.274 59.1515 116.229 59.1433 116.186 59.1262L114.533 58.4603C114.38 58.3985 114.22 58.3423 114.043 58.2881C111.869 57.626 110.217 56.8227 108.994 55.8326C108.853 55.7185 108.836 55.5178 108.956 55.3842C109.077 55.2507 109.288 55.2349 109.429 55.3488C110.584 56.2833 112.16 57.0467 114.248 57.6827C114.445 57.743 114.625 57.8059 114.795 57.8754L116.448 58.5406C116.619 58.6093 116.698 58.7961 116.626 58.9577C116.572 59.0788 116.448 59.1515 116.317 59.1515" fill="#241D1E"/>
<path fill-rule="evenodd" clip-rule="evenodd" d="M128.573 60.1212C128.516 60.1212 128.459 60.0923 128.413 60.0325C128.302 59.8948 128.286 59.6454 128.375 59.4757C128.476 59.2831 128.625 59.1653 128.785 59.1526C128.946 59.1406 129.102 59.2331 129.215 59.4085C129.314 59.5631 129.314 59.8139 129.214 59.9685C129.115 60.1231 128.953 60.123 128.853 59.9684C128.839 59.9462 128.822 59.942 128.811 59.9435C128.8 59.9444 128.784 59.9506 128.772 59.9748C128.721 60.0711 128.648 60.1212 128.573 60.1212" fill="#241D1E"/>
<path fill-rule="evenodd" clip-rule="evenodd" d="M127.601 61.0909C127.544 61.0909 127.488 61.062 127.44 61.0023C127.331 60.8645 127.314 60.6151 127.403 60.4454C127.504 60.2529 127.653 60.1351 127.813 60.1224C127.974 60.1098 128.129 60.2029 128.242 60.3782C128.342 60.5329 128.342 60.7836 128.242 60.9383C128.142 61.093 127.981 61.0929 127.881 60.9382C127.867 60.9159 127.85 60.9117 127.839 60.9133C127.828 60.9142 127.812 60.9203 127.8 60.9445C127.749 61.0409 127.675 61.0909 127.601 61.0909" fill="#241D1E"/>
<path fill-rule="evenodd" clip-rule="evenodd" d="M113.374 55.2727C113.2 55.2727 113.047 55.1829 113.018 55.0568L112.963 54.8127C112.958 54.7926 112.941 54.7812 112.928 54.7751C112.761 54.698 112.713 54.5391 112.822 54.4202C112.93 54.3012 113.153 54.2673 113.321 54.3442C113.511 54.4316 113.639 54.5726 113.676 54.7312L113.73 54.9753C113.762 55.1152 113.628 55.2469 113.431 55.2694C113.413 55.2717 113.393 55.2727 113.374 55.2727" fill="#241D1E"/>
<path fill-rule="evenodd" clip-rule="evenodd" d="M111.393 55.2727C111.202 55.2727 111.032 55.1774 111.001 55.0437L110.94 54.7849C110.937 54.7737 110.93 54.7638 110.92 54.7556C110.774 54.6433 110.789 54.4713 110.953 54.3716C111.118 54.2718 111.369 54.2821 111.515 54.3945C111.626 54.48 111.698 54.5852 111.726 54.6985L111.786 54.9574C111.821 55.1058 111.673 55.2453 111.456 55.2692C111.436 55.2715 111.414 55.2727 111.393 55.2727" fill="#241D1E"/>
<path fill-rule="evenodd" clip-rule="evenodd" d="M137.881 5.71005C137.885 5.78901 137.805 5.84254 137.737 5.80694C137.663 5.76851 137.587 5.73008 137.545 5.68351C136.804 4.86844 136.941 3.54811 137.834 2.91759C137.838 2.91476 137.842 2.91192 137.846 2.90908C138.06 3.35331 138.08 3.8496 137.978 4.37865C137.967 4.43931 137.95 4.49878 137.935 4.55862C137.837 4.94155 137.867 5.31578 137.881 5.71005" fill="#000201"/>
<path fill-rule="evenodd" clip-rule="evenodd" d="M138.039 3.84709C137.577 5.17252 136.656 5.14311 135.972 3.98984C135.523 3.93142 134.908 2.83681 135.197 2.62644C135.362 2.50635 135.526 2.59548 135.637 2.69406C135.685 2.73651 135.769 2.70897 135.767 2.65072L135.78 2.07649C135.777 1.95631 135.95 1.89382 136.052 1.97815L136.351 2.48696C136.403 2.53014 136.257 2.50325 136.241 2.44312C136.241 2.44312 135.997 2.01693 136.35 1.95501C136.473 1.93342 136.57 1.9968 136.644 2.08854C136.82 2.3073 137.027 2.51042 137.292 2.65276C137.672 2.85701 137.899 3.28785 138.039 3.84709" fill="#000201"/>
<path fill-rule="evenodd" clip-rule="evenodd" d="M136.439 4.93508L136.094 5.81149C136.526 5.84881 136.813 5.72854 136.973 5.46916C137.049 5.34713 137.083 5.20934 137.057 5.07484C137.008 4.81437 136.781 4.79434 136.439 4.93508" fill="#FF887A"/>
<path fill-rule="evenodd" clip-rule="evenodd" d="M137.297 5.81815C137.219 5.81815 137.144 5.79421 137.103 5.75061C137.033 5.68363 137.066 5.59585 137.177 5.55452C137.506 5.42827 137.645 5.24301 137.534 5.07059L137.52 5.0418C137.474 4.96827 137.534 4.8859 137.65 4.85769C137.77 4.83004 137.905 4.86652 137.951 4.94005L137.97 4.96827C138.16 5.2718 137.942 5.59699 137.418 5.79649C137.381 5.81131 137.339 5.81815 137.297 5.81815" fill="#241D1E"/>
<path fill-rule="evenodd" clip-rule="evenodd" d="M130.955 31.0303H92.6285C91.9378 31.0303 91.3779 30.4648 91.3779 29.7673V29.3842C91.3779 28.6867 91.9378 28.1212 92.6285 28.1212H130.955C131.646 28.1212 132.206 28.6867 132.206 29.3842V29.7673C132.206 30.4648 131.646 31.0303 130.955 31.0303" fill="#FBFFFC"/>
<path fill-rule="evenodd" clip-rule="evenodd" d="M140.74 11.7071C139.153 10.3828 136.658 10.3224 134.951 11.5278C130.76 14.4867 129.688 18.4377 126.132 23.3115C123.688 24.046 118.53 24.2621 118.53 24.2621C115.28 24.3399 110.172 25.3194 110.171 25.714C110.17 25.878 110.602 25.9981 110.964 25.9029C111.687 25.6977 111.578 25.6625 111.578 25.7483C111.578 25.8341 111.652 25.6108 110.805 25.9062C110.399 26.0212 109.841 26.2265 109.848 26.3375C109.853 26.4185 109.869 26.4835 110.113 26.5614C110.271 26.6119 110.533 26.6113 110.692 26.5649C111.516 26.3255 112.219 26.3206 111.043 26.6061C110.851 26.6529 110.684 26.7595 110.578 26.9072C110.426 27.1212 110.442 27.1996 110.505 27.2872C110.605 27.4244 111.019 27.2013 111.019 27.2013C111.231 27.074 111.435 26.9743 111.671 27.0641C111.671 27.0641 112.294 27.156 112.072 27.2127L111.454 27.2414C111.312 27.2776 110.965 27.6074 111.032 27.762C111.072 27.855 111.241 27.8487 111.411 27.8148C111.692 27.7589 111.985 27.806 112.227 27.9547C112.328 28.0161 112.438 28.0625 112.554 28.0889C112.867 28.1609 113.185 28.2182 113.506 28.2607L116.568 28.6657C120.517 28.8771 124.633 29.5065 128.329 28.6657C131.459 27.9011 134.992 25.8154 138.28 21.5953C140.792 17.9912 143.56 14.0612 140.74 11.7071" fill="#FF887A"/>
<path fill-rule="evenodd" clip-rule="evenodd" d="M70.9638 3.3939C70.9638 4.73284 69.8757 5.8182 68.5335 5.8182C67.1914 5.8182 66.1033 4.73284 66.1033 3.3939C66.1033 2.05507 67.1914 0.969711 68.5335 0.969711C69.8757 0.969711 70.9638 2.05507 70.9638 3.3939" fill="#241D1E"/>
<path fill-rule="evenodd" clip-rule="evenodd" d="M68.0475 0.96964C68.0475 1.50525 67.6124 1.93939 67.0754 1.93939C66.5385 1.93939 66.1033 1.50525 66.1033 0.96964C66.1033 0.434143 66.5385 0 67.0754 0C67.6124 0 68.0475 0.434143 68.0475 0.96964" fill="#241D1E"/>
<path fill-rule="evenodd" clip-rule="evenodd" d="M139.011 22.303C138.557 23.2521 137.167 26.5089 134.39 28.1212L134.15 26.5233L139.011 22.303" fill="#241D1E"/>
<path fill-rule="evenodd" clip-rule="evenodd" d="M141.699 11.7071C140.093 10.3828 137.57 10.3224 135.844 11.5278C131.866 14.3039 130.418 18.0135 127.516 22.4295C127.136 23.0072 126.516 23.3934 125.819 23.4935C123.033 23.8937 118.265 24.2642 117.625 24.3702C118.302 25.3941 118.438 26.2858 118.25 28.7263C121.934 28.9718 125.718 29.4364 129.145 28.6657C132.311 27.901 135.885 25.8154 139.21 21.5953C141.751 17.9912 144.551 14.0612 141.699 11.7071" fill="#008583"/>
<path fill-rule="evenodd" clip-rule="evenodd" d="M34.3816 48.4848L34.9956 43.5394L31.1072 41.6969C32.3125 43.1464 33.3815 45.5695 34.3816 48.4848" fill="#008583"/>
<path fill-rule="evenodd" clip-rule="evenodd" d="M34.9956 43.6504L31.1072 41.6969C31.4431 42.1254 31.3878 41.993 31.704 42.5709C32.6471 43.5927 33.9605 44.6732 34.8841 44.6028L34.9956 43.6504" fill="#241D1E"/>
<path fill-rule="evenodd" clip-rule="evenodd" d="M34.8394 42.6666C36.5812 32.4248 23.2063 27.6655 20.7873 31.2405C18.3682 34.8155 28.241 40.8337 34.8394 42.6666" fill="#008583"/>
<path fill-rule="evenodd" clip-rule="evenodd" d="M27.9366 37.8182C26.1345 37.8182 23.7316 37.4847 22.4184 37.0019C22.3664 36.9828 22.3443 36.9347 22.3689 36.8945C22.3936 36.8543 22.4558 36.8371 22.5078 36.8563C24.6256 37.6349 29.1531 37.9369 29.9605 37.3538C30.0026 37.3233 30.0685 37.3251 30.1077 37.3576C30.1469 37.3902 30.1447 37.4412 30.1027 37.4714C29.7677 37.7134 28.9465 37.8182 27.9366 37.8182" fill="#000201"/>
<path fill-rule="evenodd" clip-rule="evenodd" d="M34.891 42.6667C34.8523 42.6667 34.8152 42.6463 34.7972 42.6114C32.3186 37.7884 28.2006 34.2742 21.4449 31.2168C21.393 31.1932 21.3711 31.1347 21.396 31.0859C21.4211 31.0371 21.4834 31.0165 21.5351 31.04C28.3362 34.118 32.4843 37.6603 34.9848 42.5259C35.0098 42.5747 34.9881 42.6332 34.9364 42.657C34.9217 42.6635 34.9063 42.6667 34.891 42.6667" fill="#000201"/>
<path fill-rule="evenodd" clip-rule="evenodd" d="M170.269 50.4243L169.146 47.5938L172.062 47.5152C171.402 48.1364 170.817 49.1748 170.269 50.4243" fill="#B230FF"/>
<path fill-rule="evenodd" clip-rule="evenodd" d="M169.146 47.5152C169.146 47.5152 172.251 47.7954 172.053 48.0224C171.462 48.424 170.136 48.5077 169.557 48.48L169.146 47.5152" fill="#241D1E"/>
<path fill-rule="evenodd" clip-rule="evenodd" d="M169.146 47.488C172.466 43.6035 179.322 46.5225 178.843 48.4815C178.362 50.4407 172.329 49.0942 169.146 47.488" fill="#B230FF"/>
<path fill-rule="evenodd" clip-rule="evenodd" d="M178.757 48.4848C178.726 48.4848 178.694 48.4735 178.672 48.4516C176.213 45.9657 171.738 46.7048 169.289 47.3666C169.231 47.3821 169.17 47.3564 169.151 47.3092C169.132 47.2622 169.163 47.2113 169.22 47.1958C171.723 46.5197 176.3 45.7688 178.842 48.3384C178.88 48.3769 178.873 48.4335 178.826 48.4648C178.806 48.4783 178.781 48.4848 178.757 48.4848" fill="#000201"/>
<path fill-rule="evenodd" clip-rule="evenodd" d="M27.1276 35.8788C27.0839 35.8788 27.0453 35.8458 27.0379 35.7993C26.7412 33.9601 26.2408 32.909 25.3107 32.1715C25.2706 32.1397 25.2628 32.0798 25.2931 32.0378C25.3234 31.9959 25.3806 31.9875 25.4208 32.0194C26.3791 32.7793 26.9164 33.9002 27.2176 35.7676C27.226 35.8195 27.1925 35.8688 27.1428 35.8775C27.1377 35.8783 27.1326 35.8788 27.1276 35.8788" fill="#000201"/>
<path fill-rule="evenodd" clip-rule="evenodd" d="M169.026 50.4242C169.311 48.1822 169.095 45.7715 168.31 43.9607C167.412 41.8859 165.402 40.4455 163.258 39.9018C161.563 39.472 160.767 40.0474 160.488 41.0368C159.992 43.0675 161.587 44.4315 163.534 45.2969C163.68 45.3614 163.825 45.4245 163.966 45.4969C166.133 46.6076 167.649 48.4382 169.026 50.4242" fill="#B230FF"/>
</svg>
